<?xml version="1.0" encoding="UTF-8" standalone="no"?>
<!DOCTYPE svg PUBLIC "-//W3C//DTD SVG 1.1//EN"
 "http://www.w3.org/Graphics/SVG/1.1/DTD/svg11.dtd">
<!-- Generated by graphviz version 2.43.0 (0)
 -->
<!-- Title: G Pages: 1 -->
<svg width="2740pt" height="1279pt"
 viewBox="0.00 0.00 2740.20 1279.20" xmlns="http://www.w3.org/2000/svg" xmlns:xlink="http://www.w3.org/1999/xlink">
<g id="graph0" class="graph" transform="scale(1 1) rotate(0) translate(21.6 1257.6)">
<title>G</title>
<polygon fill="#111111" stroke="transparent" points="-21.6,21.6 -21.6,-1257.6 2718.6,-1257.6 2718.6,21.6 -21.6,21.6"/>
<!-- ../webpack.config.js -->
<g id="node1" class="node">
<title>../webpack.config.js</title>
<path fill="none" stroke="#cfffac" d="M737.83,-518C737.83,-518 619.17,-518 619.17,-518 615.33,-518 611.5,-514.17 611.5,-510.33 611.5,-510.33 611.5,-502.67 611.5,-502.67 611.5,-498.83 615.33,-495 619.17,-495 619.17,-495 737.83,-495 737.83,-495 741.67,-495 745.5,-498.83 745.5,-502.67 745.5,-502.67 745.5,-510.33 745.5,-510.33 745.5,-514.17 741.67,-518 737.83,-518"/>
<text text-anchor="middle" x="678.5" y="-502.8" font-family="Arial" font-size="14.00" fill="#cfffac">../webpack.config.js</text>
</g>
<!-- accounts/account.js -->
<g id="node2" class="node">
<title>accounts/account.js</title>
<path fill="none" stroke="#c6c5fe" d="M969.33,-598C969.33,-598 849.67,-598 849.67,-598 845.83,-598 842,-594.17 842,-590.33 842,-590.33 842,-582.67 842,-582.67 842,-578.83 845.83,-575 849.67,-575 849.67,-575 969.33,-575 969.33,-575 973.17,-575 977,-578.83 977,-582.67 977,-582.67 977,-590.33 977,-590.33 977,-594.17 973.17,-598 969.33,-598"/>
<text text-anchor="middle" x="909.5" y="-582.8" font-family="Arial" font-size="14.00" fill="#c6c5fe">accounts/account.js</text>
</g>
<!-- database.js -->
<g id="node3" class="node">
<title>database.js</title>
<path fill="none" stroke="#cfffac" d="M1924.33,-420C1924.33,-420 1853.67,-420 1853.67,-420 1849.83,-420 1846,-416.17 1846,-412.33 1846,-412.33 1846,-404.67 1846,-404.67 1846,-400.83 1849.83,-397 1853.67,-397 1853.67,-397 1924.33,-397 1924.33,-397 1928.17,-397 1932,-400.83 1932,-404.67 1932,-404.67 1932,-412.33 1932,-412.33 1932,-416.17 1928.17,-420 1924.33,-420"/>
<text text-anchor="middle" x="1889" y="-404.8" font-family="Arial" font-size="14.00" fill="#cfffac">database.js</text>
</g>
<!-- accounts/account.js&#45;&gt;database.js -->
<g id="edge1" class="edge">
<title>accounts/account.js&#45;&gt;database.js</title>
<path fill="none" stroke="#757575" d="M956.83,-598.01C1081.69,-626.21 1430.86,-686.21 1655,-538.5 1684.21,-519.25 1664.15,-490.92 1691,-468.5 1732.16,-434.13 1792.71,-419.44 1835.8,-413.17"/>
<polygon fill="#757575" stroke="#757575" points="1836.36,-416.62 1845.81,-411.81 1835.43,-409.68 1836.36,-416.62"/>
</g>
<!-- devices/devices&#45;manager.js -->
<g id="node4" class="node">
<title>devices/devices&#45;manager.js</title>
<path fill="none" stroke="#c6c5fe" d="M1202.33,-401C1202.33,-401 1034.67,-401 1034.67,-401 1030.83,-401 1027,-397.17 1027,-393.33 1027,-393.33 1027,-385.67 1027,-385.67 1027,-381.83 1030.83,-378 1034.67,-378 1034.67,-378 1202.33,-378 1202.33,-378 1206.17,-378 1210,-381.83 1210,-385.67 1210,-385.67 1210,-393.33 1210,-393.33 1210,-397.17 1206.17,-401 1202.33,-401"/>
<text text-anchor="middle" x="1118.5" y="-385.8" font-family="Arial" font-size="14.00" fill="#c6c5fe">devices/devices&#45;manager.js</text>
</g>
<!-- accounts/account.js&#45;&gt;devices/devices&#45;manager.js -->
<g id="edge2" class="edge">
<title>accounts/account.js&#45;&gt;devices/devices&#45;manager.js</title>
<path fill="none" stroke="#757575" d="M962.59,-574.92C972.57,-571.3 982.53,-566.59 991,-560.5 1020.42,-539.36 1079.06,-450.17 1104.84,-409.66"/>
<polygon fill="#757575" stroke="#757575" points="1107.84,-411.46 1110.24,-401.14 1101.93,-407.71 1107.84,-411.46"/>
</g>
<!-- locations/rooms&#45;list.js -->
<g id="node5" class="node">
<title>locations/rooms&#45;list.js</title>
<path fill="none" stroke="#cfffac" d="M1183.83,-560C1183.83,-560 1053.17,-560 1053.17,-560 1049.33,-560 1045.5,-556.17 1045.5,-552.33 1045.5,-552.33 1045.5,-544.67 1045.5,-544.67 1045.5,-540.83 1049.33,-537 1053.17,-537 1053.17,-537 1183.83,-537 1183.83,-537 1187.67,-537 1191.5,-540.83 1191.5,-544.67 1191.5,-544.67 1191.5,-552.33 1191.5,-552.33 1191.5,-556.17 1187.67,-560 1183.83,-560"/>
<text text-anchor="middle" x="1118.5" y="-544.8" font-family="Arial" font-size="14.00" fill="#cfffac">locations/rooms&#45;list.js</text>
</g>
<!-- accounts/account.js&#45;&gt;locations/rooms&#45;list.js -->
<g id="edge3" class="edge">
<title>accounts/account.js&#45;&gt;locations/rooms&#45;list.js</title>
<path fill="none" stroke="#757575" d="M973.17,-575C995.76,-570.85 1021.45,-566.13 1044.83,-561.84"/>
<polygon fill="#757575" stroke="#757575" points="1045.48,-565.28 1054.69,-560.03 1044.22,-558.39 1045.48,-565.28"/>
</g>
<!-- devices/devices&#45;manager.js&#45;&gt;database.js -->
<g id="edge24" class="edge">
<title>devices/devices&#45;manager.js&#45;&gt;database.js</title>
<path fill="none" stroke="#757575" d="M1176.56,-401.02C1198.21,-404.85 1223.15,-408.62 1246,-410.5 1464.45,-428.51 1726.13,-417.67 1835.71,-411.68"/>
<polygon fill="#757575" stroke="#757575" points="1836.05,-415.16 1845.84,-411.11 1835.66,-408.17 1836.05,-415.16"/>
</g>
<!-- devices/device.js -->
<g id="node17" class="node">
<title>devices/device.js</title>
<path fill="none" stroke="#c6c5fe" d="M1357.33,-401C1357.33,-401 1253.67,-401 1253.67,-401 1249.83,-401 1246,-397.17 1246,-393.33 1246,-393.33 1246,-385.67 1246,-385.67 1246,-381.83 1249.83,-378 1253.67,-378 1253.67,-378 1357.33,-378 1357.33,-378 1361.17,-378 1365,-381.83 1365,-385.67 1365,-385.67 1365,-393.33 1365,-393.33 1365,-397.17 1361.17,-401 1357.33,-401"/>
<text text-anchor="middle" x="1305.5" y="-385.8" font-family="Arial" font-size="14.00" fill="#c6c5fe">devices/device.js</text>
</g>
<!-- devices/devices&#45;manager.js&#45;&gt;devices/device.js -->
<g id="edge25" class="edge">
<title>devices/devices&#45;manager.js&#45;&gt;devices/device.js</title>
<path fill="none" stroke="#757575" d="M1210.1,-389.5C1218.76,-389.5 1227.44,-389.5 1235.84,-389.5"/>
<polygon fill="#757575" stroke="#757575" points="1235.92,-393 1245.92,-389.5 1235.92,-386 1235.92,-393"/>
</g>
<!-- accounts/accounts&#45;manager.js -->
<g id="node6" class="node">
<title>accounts/accounts&#45;manager.js</title>
<path fill="none" stroke="#c6c5fe" d="M770.83,-477C770.83,-477 586.17,-477 586.17,-477 582.33,-477 578.5,-473.17 578.5,-469.33 578.5,-469.33 578.5,-461.67 578.5,-461.67 578.5,-457.83 582.33,-454 586.17,-454 586.17,-454 770.83,-454 770.83,-454 774.67,-454 778.5,-457.83 778.5,-461.67 778.5,-461.67 778.5,-469.33 778.5,-469.33 778.5,-473.17 774.67,-477 770.83,-477"/>
<text text-anchor="middle" x="678.5" y="-461.8" font-family="Arial" font-size="14.00" fill="#c6c5fe">accounts/accounts&#45;manager.js</text>
</g>
<!-- accounts/accounts&#45;manager.js&#45;&gt;accounts/account.js -->
<g id="edge4" class="edge">
<title>accounts/accounts&#45;manager.js&#45;&gt;accounts/account.js</title>
<path fill="none" stroke="#757575" d="M769.02,-477.02C777.01,-479.58 784.79,-482.7 792,-486.5 812.02,-497.05 811.12,-507.43 828,-522.5 846.49,-539 868.6,-556.42 884.96,-568.92"/>
<polygon fill="#757575" stroke="#757575" points="882.86,-571.72 892.94,-574.97 887.09,-566.14 882.86,-571.72"/>
</g>
<!-- accounts/accounts&#45;manager.js&#45;&gt;database.js -->
<g id="edge5" class="edge">
<title>accounts/accounts&#45;manager.js&#45;&gt;database.js</title>
<path fill="none" stroke="#757575" d="M778.63,-464.67C955.06,-462.66 1335.1,-455.88 1655,-433.5 1717.39,-429.14 1788.86,-421 1836.02,-415.19"/>
<polygon fill="#757575" stroke="#757575" points="1836.5,-418.66 1845.99,-413.96 1835.64,-411.71 1836.5,-418.66"/>
</g>
<!-- automator/automation.js -->
<g id="node7" class="node">
<title>automator/automation.js</title>
<path fill="none" stroke="#cfffac" d="M983.33,-223C983.33,-223 835.67,-223 835.67,-223 831.83,-223 828,-219.17 828,-215.33 828,-215.33 828,-207.67 828,-207.67 828,-203.83 831.83,-200 835.67,-200 835.67,-200 983.33,-200 983.33,-200 987.17,-200 991,-203.83 991,-207.67 991,-207.67 991,-215.33 991,-215.33 991,-219.17 987.17,-223 983.33,-223"/>
<text text-anchor="middle" x="909.5" y="-207.8" font-family="Arial" font-size="14.00" fill="#cfffac">automator/automation.js</text>
</g>
<!-- automator/automations&#45;manager.js -->
<g id="node8" class="node">
<title>automator/automations&#45;manager.js</title>
<path fill="none" stroke="#c6c5fe" d="M784.33,-223C784.33,-223 572.67,-223 572.67,-223 568.83,-223 565,-219.17 565,-215.33 565,-215.33 565,-207.67 565,-207.67 565,-203.83 568.83,-200 572.67,-200 572.67,-200 784.33,-200 784.33,-200 788.17,-200 792,-203.83 792,-207.67 792,-207.67 792,-215.33 792,-215.33 792,-219.17 788.17,-223 784.33,-223"/>
<text text-anchor="middle" x="678.5" y="-207.8" font-family="Arial" font-size="14.00" fill="#c6c5fe">automator/automations&#45;manager.js</text>
</g>
<!-- automator/automations&#45;manager.js&#45;&gt;database.js -->
<g id="edge7" class="edge">
<title>automator/automations&#45;manager.js&#45;&gt;database.js</title>
<path fill="none" stroke="#757575" d="M758.03,-223.02C845.53,-234.83 991.32,-251.5 1117.5,-251.5 1117.5,-251.5 1117.5,-251.5 1306.5,-251.5 1384.13,-251.5 1593.94,-227.56 1655,-275.5 1696.46,-308.05 1650.07,-355.28 1691,-388.5 1731.16,-421.09 1792.15,-422.28 1835.62,-417.73"/>
<polygon fill="#757575" stroke="#757575" points="1836.2,-421.18 1845.72,-416.53 1835.38,-414.23 1836.2,-421.18"/>
</g>
<!-- automator/automations&#45;manager.js&#45;&gt;automator/automation.js -->
<g id="edge6" class="edge">
<title>automator/automations&#45;manager.js&#45;&gt;automator/automation.js</title>
<path fill="none" stroke="#757575" d="M792.32,-211.5C800.83,-211.5 809.35,-211.5 817.7,-211.5"/>
<polygon fill="#757575" stroke="#757575" points="817.77,-215 827.77,-211.5 817.77,-208 817.77,-215"/>
</g>
<!-- automator/automator.js -->
<g id="node9" class="node">
<title>automator/automator.js</title>
<path fill="none" stroke="#c6c5fe" d="M246.33,-383C246.33,-383 105.67,-383 105.67,-383 101.83,-383 98,-379.17 98,-375.33 98,-375.33 98,-367.67 98,-367.67 98,-363.83 101.83,-360 105.67,-360 105.67,-360 246.33,-360 246.33,-360 250.17,-360 254,-363.83 254,-367.67 254,-367.67 254,-375.33 254,-375.33 254,-379.17 250.17,-383 246.33,-383"/>
<text text-anchor="middle" x="176" y="-367.8" font-family="Arial" font-size="14.00" fill="#c6c5fe">automator/automator.js</text>
</g>
<!-- automator/automator.js&#45;&gt;devices/devices&#45;manager.js -->
<g id="edge9" class="edge">
<title>automator/automator.js&#45;&gt;devices/devices&#45;manager.js</title>
<path fill="none" stroke="#757575" d="M254.16,-373.59C376.03,-376.83 620.58,-383.04 828,-386.5 890.69,-387.55 961.02,-388.29 1016.66,-388.77"/>
<polygon fill="#757575" stroke="#757575" points="1016.84,-392.27 1026.87,-388.86 1016.9,-385.27 1016.84,-392.27"/>
</g>
<!-- automator/automator.js&#45;&gt;accounts/accounts&#45;manager.js -->
<g id="edge8" class="edge">
<title>automator/automator.js&#45;&gt;accounts/accounts&#45;manager.js</title>
<path fill="none" stroke="#757575" d="M254.21,-382.53C325.73,-393.15 434.93,-410.37 529,-429.5 560.49,-435.9 595.42,-444.3 623.49,-451.38"/>
<polygon fill="#757575" stroke="#757575" points="622.95,-454.86 633.51,-453.92 624.68,-448.07 622.95,-454.86"/>
</g>
<!-- notifications.js -->
<g id="node10" class="node">
<title>notifications.js</title>
<path fill="none" stroke="#c6c5fe" d="M452.33,-461C452.33,-461 366.67,-461 366.67,-461 362.83,-461 359,-457.17 359,-453.33 359,-453.33 359,-445.67 359,-445.67 359,-441.83 362.83,-438 366.67,-438 366.67,-438 452.33,-438 452.33,-438 456.17,-438 460,-441.83 460,-445.67 460,-445.67 460,-453.33 460,-453.33 460,-457.17 456.17,-461 452.33,-461"/>
<text text-anchor="middle" x="409.5" y="-445.8" font-family="Arial" font-size="14.00" fill="#c6c5fe">notifications.js</text>
</g>
<!-- automator/automator.js&#45;&gt;notifications.js -->
<g id="edge10" class="edge">
<title>automator/automator.js&#45;&gt;notifications.js</title>
<path fill="none" stroke="#757575" d="M198.52,-383.1C220.84,-394.73 257.04,-412.44 290,-423.5 308.79,-429.8 329.77,-434.98 348.8,-439.02"/>
<polygon fill="#757575" stroke="#757575" points="348.35,-442.5 358.85,-441.08 349.76,-435.64 348.35,-442.5"/>
</g>
<!-- scenes/scenes&#45;manager.js -->
<g id="node11" class="node">
<title>scenes/scenes&#45;manager.js</title>
<path fill="none" stroke="#c6c5fe" d="M490.33,-343C490.33,-343 328.67,-343 328.67,-343 324.83,-343 321,-339.17 321,-335.33 321,-335.33 321,-327.67 321,-327.67 321,-323.83 324.83,-320 328.67,-320 328.67,-320 490.33,-320 490.33,-320 494.17,-320 498,-323.83 498,-327.67 498,-327.67 498,-335.33 498,-335.33 498,-339.17 494.17,-343 490.33,-343"/>
<text text-anchor="middle" x="409.5" y="-327.8" font-family="Arial" font-size="14.00" fill="#c6c5fe">scenes/scenes&#45;manager.js</text>
</g>
<!-- automator/automator.js&#45;&gt;scenes/scenes&#45;manager.js -->
<g id="edge11" class="edge">
<title>automator/automator.js&#45;&gt;scenes/scenes&#45;manager.js</title>
<path fill="none" stroke="#757575" d="M243.65,-359.98C271.25,-355.21 303.42,-349.66 331.98,-344.72"/>
<polygon fill="#757575" stroke="#757575" points="332.66,-348.16 341.92,-343 331.47,-341.26 332.66,-348.16"/>
</g>
<!-- notifications.js&#45;&gt;accounts/accounts&#45;manager.js -->
<g id="edge57" class="edge">
<title>notifications.js&#45;&gt;accounts/accounts&#45;manager.js</title>
<path fill="none" stroke="#757575" d="M460.09,-452.47C490.55,-454.3 530.81,-456.71 568.39,-458.96"/>
<polygon fill="#757575" stroke="#757575" points="568.2,-462.46 578.39,-459.56 568.62,-455.47 568.2,-462.46"/>
</g>
<!-- scenes/scenes&#45;manager.js&#45;&gt;database.js -->
<g id="edge58" class="edge">
<title>scenes/scenes&#45;manager.js&#45;&gt;database.js</title>
<path fill="none" stroke="#757575" d="M498,-327.3C773.31,-314.44 1606.5,-278.3 1655,-309.5 1687.45,-330.37 1659.65,-366.01 1691,-388.5 1732.68,-418.39 1792.69,-420.24 1835.51,-416.57"/>
<polygon fill="#757575" stroke="#757575" points="1836.12,-420.03 1845.73,-415.56 1835.43,-413.06 1836.12,-420.03"/>
</g>
<!-- scenes/scenes&#45;manager.js&#45;&gt;devices/devices&#45;manager.js -->
<g id="edge59" class="edge">
<title>scenes/scenes&#45;manager.js&#45;&gt;devices/devices&#45;manager.js</title>
<path fill="none" stroke="#757575" d="M498.32,-339.62C520.1,-341.59 543.4,-343.66 565,-345.5 722.59,-358.91 905.58,-373.24 1016.39,-381.78"/>
<polygon fill="#757575" stroke="#757575" points="1016.31,-385.28 1026.55,-382.56 1016.85,-378.31 1016.31,-385.28"/>
</g>
<!-- scenes/scene.js -->
<g id="node36" class="node">
<title>scenes/scene.js</title>
<path fill="none" stroke="#cfffac" d="M727.33,-303C727.33,-303 629.67,-303 629.67,-303 625.83,-303 622,-299.17 622,-295.33 622,-295.33 622,-287.67 622,-287.67 622,-283.83 625.83,-280 629.67,-280 629.67,-280 727.33,-280 727.33,-280 731.17,-280 735,-283.83 735,-287.67 735,-287.67 735,-295.33 735,-295.33 735,-299.17 731.17,-303 727.33,-303"/>
<text text-anchor="middle" x="678.5" y="-287.8" font-family="Arial" font-size="14.00" fill="#cfffac">scenes/scene.js</text>
</g>
<!-- scenes/scenes&#45;manager.js&#45;&gt;scenes/scene.js -->
<g id="edge60" class="edge">
<title>scenes/scenes&#45;manager.js&#45;&gt;scenes/scene.js</title>
<path fill="none" stroke="#757575" d="M487.37,-319.98C526.66,-314.1 573.98,-307.01 611.58,-301.38"/>
<polygon fill="#757575" stroke="#757575" points="612.54,-304.77 621.92,-299.83 611.51,-297.85 612.54,-304.77"/>
</g>
<!-- client&#45;api.js -->
<g id="node12" class="node">
<title>client&#45;api.js</title>
<path fill="none" stroke="#c6c5fe" d="M210.33,-302C210.33,-302 141.67,-302 141.67,-302 137.83,-302 134,-298.17 134,-294.33 134,-294.33 134,-286.67 134,-286.67 134,-282.83 137.83,-279 141.67,-279 141.67,-279 210.33,-279 210.33,-279 214.17,-279 218,-282.83 218,-286.67 218,-286.67 218,-294.33 218,-294.33 218,-298.17 214.17,-302 210.33,-302"/>
<text text-anchor="middle" x="176" y="-286.8" font-family="Arial" font-size="14.00" fill="#c6c5fe">client&#45;api.js</text>
</g>
<!-- client&#45;connection.js -->
<g id="node13" class="node">
<title>client&#45;connection.js</title>
<path fill="none" stroke="#c6c5fe" d="M467.33,-302C467.33,-302 351.67,-302 351.67,-302 347.83,-302 344,-298.17 344,-294.33 344,-294.33 344,-286.67 344,-286.67 344,-282.83 347.83,-279 351.67,-279 351.67,-279 467.33,-279 467.33,-279 471.17,-279 475,-282.83 475,-286.67 475,-286.67 475,-294.33 475,-294.33 475,-298.17 471.17,-302 467.33,-302"/>
<text text-anchor="middle" x="409.5" y="-286.8" font-family="Arial" font-size="14.00" fill="#c6c5fe">client&#45;connection.js</text>
</g>
<!-- client&#45;api.js&#45;&gt;client&#45;connection.js -->
<g id="edge12" class="edge">
<title>client&#45;api.js&#45;&gt;client&#45;connection.js</title>
<path fill="none" stroke="#757575" d="M218.12,-290.5C250.09,-290.5 295.29,-290.5 333.62,-290.5"/>
<polygon fill="#757575" stroke="#757575" points="333.72,-294 343.72,-290.5 333.72,-287 333.72,-294"/>
</g>
<!-- client&#45;connection.js&#45;&gt;devices/devices&#45;manager.js -->
<g id="edge15" class="edge">
<title>client&#45;connection.js&#45;&gt;devices/devices&#45;manager.js</title>
<path fill="none" stroke="#757575" d="M475.34,-280.22C502.91,-276.34 535.45,-272.4 565,-270.5 665.68,-264.01 692.66,-252.91 792,-270.5 904.01,-290.33 1028.11,-345.78 1085.35,-373.41"/>
<polygon fill="#757575" stroke="#757575" points="1084.07,-376.69 1094.6,-377.92 1087.14,-370.39 1084.07,-376.69"/>
</g>
<!-- client&#45;connection.js&#45;&gt;accounts/accounts&#45;manager.js -->
<g id="edge13" class="edge">
<title>client&#45;connection.js&#45;&gt;accounts/accounts&#45;manager.js</title>
<path fill="none" stroke="#757575" d="M475.04,-294.49C493.27,-297.56 512.59,-302.76 529,-311.5 590.42,-344.22 641.49,-411.55 664.45,-445.29"/>
<polygon fill="#757575" stroke="#757575" points="661.71,-447.48 670.17,-453.86 667.53,-443.6 661.71,-447.48"/>
</g>
<!-- client&#45;connection.js&#45;&gt;automator/automations&#45;manager.js -->
<g id="edge14" class="edge">
<title>client&#45;connection.js&#45;&gt;automator/automations&#45;manager.js</title>
<path fill="none" stroke="#757575" d="M475.24,-285.59C493.28,-282.5 512.45,-277.51 529,-269.5 548.27,-260.17 545.98,-247.33 565,-237.5 574.04,-232.83 583.92,-228.99 593.95,-225.83"/>
<polygon fill="#757575" stroke="#757575" points="594.98,-229.18 603.6,-223.01 593.02,-222.46 594.98,-229.18"/>
</g>
<!-- device&#45;relay.js -->
<g id="node14" class="node">
<title>device&#45;relay.js</title>
<path fill="none" stroke="#c6c5fe" d="M219.33,-261C219.33,-261 132.67,-261 132.67,-261 128.83,-261 125,-257.17 125,-253.33 125,-253.33 125,-245.67 125,-245.67 125,-241.83 128.83,-238 132.67,-238 132.67,-238 219.33,-238 219.33,-238 223.17,-238 227,-241.83 227,-245.67 227,-245.67 227,-253.33 227,-253.33 227,-257.17 223.17,-261 219.33,-261"/>
<text text-anchor="middle" x="176" y="-245.8" font-family="Arial" font-size="14.00" fill="#c6c5fe">device&#45;relay.js</text>
</g>
<!-- device&#45;relay.js&#45;&gt;devices/devices&#45;manager.js -->
<g id="edge17" class="edge">
<title>device&#45;relay.js&#45;&gt;devices/devices&#45;manager.js</title>
<path fill="none" stroke="#757575" d="M227.26,-238.86C383.61,-206.84 858.82,-117.9 991,-190.5 1061.13,-229.02 1097.91,-324.71 1111.38,-367.82"/>
<polygon fill="#757575" stroke="#757575" points="1108.09,-369.02 1114.32,-377.59 1114.79,-367 1108.09,-369.02"/>
</g>
<!-- devices/device&#45;websocket&#45;wrapper.js -->
<g id="node15" class="node">
<title>devices/device&#45;websocket&#45;wrapper.js</title>
<path fill="none" stroke="#cfffac" d="M521.33,-261C521.33,-261 297.67,-261 297.67,-261 293.83,-261 290,-257.17 290,-253.33 290,-253.33 290,-245.67 290,-245.67 290,-241.83 293.83,-238 297.67,-238 297.67,-238 521.33,-238 521.33,-238 525.17,-238 529,-241.83 529,-245.67 529,-245.67 529,-253.33 529,-253.33 529,-257.17 525.17,-261 521.33,-261"/>
<text text-anchor="middle" x="409.5" y="-245.8" font-family="Arial" font-size="14.00" fill="#cfffac">devices/device&#45;websocket&#45;wrapper.js</text>
</g>
<!-- device&#45;relay.js&#45;&gt;devices/device&#45;websocket&#45;wrapper.js -->
<g id="edge16" class="edge">
<title>device&#45;relay.js&#45;&gt;devices/device&#45;websocket&#45;wrapper.js</title>
<path fill="none" stroke="#757575" d="M227.23,-249.5C243.01,-249.5 261.22,-249.5 279.87,-249.5"/>
<polygon fill="#757575" stroke="#757575" points="279.96,-253 289.96,-249.5 279.96,-246 279.96,-253"/>
</g>
<!-- devices/device&#45;settings.js -->
<g id="node16" class="node">
<title>devices/device&#45;settings.js</title>
<path fill="none" stroke="#cfffac" d="M2689.33,-643C2689.33,-643 2534.67,-643 2534.67,-643 2530.83,-643 2527,-639.17 2527,-635.33 2527,-635.33 2527,-627.67 2527,-627.67 2527,-623.83 2530.83,-620 2534.67,-620 2534.67,-620 2689.33,-620 2689.33,-620 2693.17,-620 2697,-623.83 2697,-627.67 2697,-627.67 2697,-635.33 2697,-635.33 2697,-639.17 2693.17,-643 2689.33,-643"/>
<text text-anchor="middle" x="2612" y="-627.8" font-family="Arial" font-size="14.00" fill="#cfffac">devices/device&#45;settings.js</text>
</g>
<!-- devices/device.js&#45;&gt;database.js -->
<g id="edge18" class="edge">
<title>devices/device.js&#45;&gt;database.js</title>
<path fill="none" stroke="#757575" d="M1365.19,-391.42C1478.89,-395.13 1727.51,-403.26 1835.83,-406.8"/>
<polygon fill="#757575" stroke="#757575" points="1835.75,-410.29 1845.86,-407.12 1835.98,-403.3 1835.75,-410.29"/>
</g>
<!-- devices/device.js&#45;&gt;devices/device&#45;settings.js -->
<g id="edge19" class="edge">
<title>devices/device.js&#45;&gt;devices/device&#45;settings.js</title>
<path fill="none" stroke="#757575" d="M1352.41,-401C1367.77,-404.5 1385.05,-408.06 1401,-410.5 1703.47,-456.68 1786.7,-409.82 2087,-468.5 2273.15,-504.87 2486.66,-583.25 2572.41,-616.3"/>
<polygon fill="#757575" stroke="#757575" points="2571.16,-619.57 2581.75,-619.92 2573.68,-613.04 2571.16,-619.57"/>
</g>
<!-- devices/drivers/generic/generic&#45;driver.js -->
<g id="node18" class="node">
<title>devices/drivers/generic/generic&#45;driver.js</title>
<path fill="none" stroke="#c6c5fe" d="M1647.33,-223C1647.33,-223 1408.67,-223 1408.67,-223 1404.83,-223 1401,-219.17 1401,-215.33 1401,-215.33 1401,-207.67 1401,-207.67 1401,-203.83 1404.83,-200 1408.67,-200 1408.67,-200 1647.33,-200 1647.33,-200 1651.17,-200 1655,-203.83 1655,-207.67 1655,-207.67 1655,-215.33 1655,-215.33 1655,-219.17 1651.17,-223 1647.33,-223"/>
<text text-anchor="middle" x="1528" y="-207.8" font-family="Arial" font-size="14.00" fill="#c6c5fe">devices/drivers/generic/generic&#45;driver.js</text>
</g>
<!-- devices/device.js&#45;&gt;devices/drivers/generic/generic&#45;driver.js -->
<g id="edge20" class="edge">
<title>devices/device.js&#45;&gt;devices/drivers/generic/generic&#45;driver.js</title>
<path fill="none" stroke="#757575" d="M1319.81,-377.93C1337.97,-362.21 1371.62,-333.34 1401,-309.5 1436.38,-280.79 1478.29,-248.53 1503.74,-229.13"/>
<polygon fill="#757575" stroke="#757575" points="1505.87,-231.91 1511.71,-223.07 1501.63,-226.34 1505.87,-231.91"/>
</g>
<!-- devices/drivers/liger&#45;driver.js -->
<g id="node19" class="node">
<title>devices/drivers/liger&#45;driver.js</title>
<path fill="none" stroke="#c6c5fe" d="M1613.83,-382C1613.83,-382 1442.17,-382 1442.17,-382 1438.33,-382 1434.5,-378.17 1434.5,-374.33 1434.5,-374.33 1434.5,-366.67 1434.5,-366.67 1434.5,-362.83 1438.33,-359 1442.17,-359 1442.17,-359 1613.83,-359 1613.83,-359 1617.67,-359 1621.5,-362.83 1621.5,-366.67 1621.5,-366.67 1621.5,-374.33 1621.5,-374.33 1621.5,-378.17 1617.67,-382 1613.83,-382"/>
<text text-anchor="middle" x="1528" y="-366.8" font-family="Arial" font-size="14.00" fill="#c6c5fe">devices/drivers/liger&#45;driver.js</text>
</g>
<!-- devices/device.js&#45;&gt;devices/drivers/liger&#45;driver.js -->
<g id="edge21" class="edge">
<title>devices/device.js&#45;&gt;devices/drivers/liger&#45;driver.js</title>
<path fill="none" stroke="#757575" d="M1365.01,-384.46C1383.32,-382.88 1404.09,-381.09 1424.51,-379.33"/>
<polygon fill="#757575" stroke="#757575" points="1424.83,-382.82 1434.49,-378.47 1424.23,-375.84 1424.83,-382.82"/>
</g>
<!-- devices/drivers/standard&#45;driver.js -->
<g id="node20" class="node">
<title>devices/drivers/standard&#45;driver.js</title>
<path fill="none" stroke="#c6c5fe" d="M1627.33,-341C1627.33,-341 1428.67,-341 1428.67,-341 1424.83,-341 1421,-337.17 1421,-333.33 1421,-333.33 1421,-325.67 1421,-325.67 1421,-321.83 1424.83,-318 1428.67,-318 1428.67,-318 1627.33,-318 1627.33,-318 1631.17,-318 1635,-321.83 1635,-325.67 1635,-325.67 1635,-333.33 1635,-333.33 1635,-337.17 1631.17,-341 1627.33,-341"/>
<text text-anchor="middle" x="1528" y="-325.8" font-family="Arial" font-size="14.00" fill="#c6c5fe">devices/drivers/standard&#45;driver.js</text>
</g>
<!-- devices/device.js&#45;&gt;devices/drivers/standard&#45;driver.js -->
<g id="edge22" class="edge">
<title>devices/device.js&#45;&gt;devices/drivers/standard&#45;driver.js</title>
<path fill="none" stroke="#757575" d="M1330.44,-377.85C1349.22,-369.14 1376.25,-357.57 1401,-350.5 1410.86,-347.68 1421.26,-345.2 1431.7,-343.02"/>
<polygon fill="#757575" stroke="#757575" points="1432.57,-346.41 1441.69,-341.02 1431.2,-339.55 1432.57,-346.41"/>
</g>
<!-- services/services&#45;manager.js -->
<g id="node21" class="node">
<title>services/services&#45;manager.js</title>
<path fill="none" stroke="#c6c5fe" d="M1615.83,-846C1615.83,-846 1440.17,-846 1440.17,-846 1436.33,-846 1432.5,-842.17 1432.5,-838.33 1432.5,-838.33 1432.5,-830.67 1432.5,-830.67 1432.5,-826.83 1436.33,-823 1440.17,-823 1440.17,-823 1615.83,-823 1615.83,-823 1619.67,-823 1623.5,-826.83 1623.5,-830.67 1623.5,-830.67 1623.5,-838.33 1623.5,-838.33 1623.5,-842.17 1619.67,-846 1615.83,-846"/>
<text text-anchor="middle" x="1528" y="-830.8" font-family="Arial" font-size="14.00" fill="#c6c5fe">services/services&#45;manager.js</text>
</g>
<!-- devices/device.js&#45;&gt;services/services&#45;manager.js -->
<g id="edge23" class="edge">
<title>devices/device.js&#45;&gt;services/services&#45;manager.js</title>
<path fill="none" stroke="#757575" d="M1312.4,-401.4C1342.35,-461.85 1477.73,-735.06 1516.56,-813.43"/>
<polygon fill="#757575" stroke="#757575" points="1513.61,-815.36 1521.19,-822.77 1519.88,-812.25 1513.61,-815.36"/>
</g>
<!-- devices/drivers/generic/generic&#45;driver.js&#45;&gt;database.js -->
<g id="edge26" class="edge">
<title>devices/drivers/generic/generic&#45;driver.js&#45;&gt;database.js</title>
<path fill="none" stroke="#757575" d="M1634.24,-223.1C1641.85,-226.86 1648.91,-231.59 1655,-237.5 1704.52,-285.53 1639.08,-343.06 1691,-388.5 1730.24,-422.84 1792.14,-423.51 1836.07,-418.35"/>
<polygon fill="#757575" stroke="#757575" points="1836.53,-421.82 1845.99,-417.05 1835.62,-414.88 1836.53,-421.82"/>
</g>
<!-- devices/drivers/device&#45;driver.js -->
<g id="node22" class="node">
<title>devices/drivers/device&#45;driver.js</title>
<path fill="none" stroke="#cfffac" d="M1981.33,-379C1981.33,-379 1796.67,-379 1796.67,-379 1792.83,-379 1789,-375.17 1789,-371.33 1789,-371.33 1789,-363.67 1789,-363.67 1789,-359.83 1792.83,-356 1796.67,-356 1796.67,-356 1981.33,-356 1981.33,-356 1985.17,-356 1989,-359.83 1989,-363.67 1989,-363.67 1989,-371.33 1989,-371.33 1989,-375.17 1985.17,-379 1981.33,-379"/>
<text text-anchor="middle" x="1889" y="-363.8" font-family="Arial" font-size="14.00" fill="#cfffac">devices/drivers/device&#45;driver.js</text>
</g>
<!-- devices/drivers/generic/generic&#45;driver.js&#45;&gt;devices/drivers/device&#45;driver.js -->
<g id="edge27" class="edge">
<title>devices/drivers/generic/generic&#45;driver.js&#45;&gt;devices/drivers/device&#45;driver.js</title>
<path fill="none" stroke="#757575" d="M1632.5,-223.08C1640.68,-226.82 1648.34,-231.55 1655,-237.5 1693.37,-271.77 1650.93,-315.24 1691,-347.5 1715.46,-367.2 1747.56,-375.38 1778.72,-377.76"/>
<polygon fill="#757575" stroke="#757575" points="1778.61,-381.26 1788.79,-378.34 1779.01,-374.27 1778.61,-381.26"/>
</g>
<!-- devices/drivers/generic/service&#45;adapters/button&#45;adapter.js -->
<g id="node23" class="node">
<title>devices/drivers/generic/service&#45;adapters/button&#45;adapter.js</title>
<path fill="none" stroke="#c6c5fe" d="M2062.33,-258C2062.33,-258 1715.67,-258 1715.67,-258 1711.83,-258 1708,-254.17 1708,-250.33 1708,-250.33 1708,-242.67 1708,-242.67 1708,-238.83 1711.83,-235 1715.67,-235 1715.67,-235 2062.33,-235 2062.33,-235 2066.17,-235 2070,-238.83 2070,-242.67 2070,-242.67 2070,-250.33 2070,-250.33 2070,-254.17 2066.17,-258 2062.33,-258"/>
<text text-anchor="middle" x="1889" y="-242.8" font-family="Arial" font-size="14.00" fill="#c6c5fe">devices/drivers/generic/service&#45;adapters/button&#45;adapter.js</text>
</g>
<!-- devices/drivers/generic/generic&#45;driver.js&#45;&gt;devices/drivers/generic/service&#45;adapters/button&#45;adapter.js -->
<g id="edge28" class="edge">
<title>devices/drivers/generic/generic&#45;driver.js&#45;&gt;devices/drivers/generic/service&#45;adapters/button&#45;adapter.js</title>
<path fill="none" stroke="#757575" d="M1647.05,-223.01C1683.1,-226.52 1722.91,-230.41 1759.62,-233.98"/>
<polygon fill="#757575" stroke="#757575" points="1759.59,-237.5 1769.88,-234.98 1760.27,-230.53 1759.59,-237.5"/>
</g>
<!-- devices/drivers/generic/service&#45;adapters/dimmer&#45;adapter.js -->
<g id="node24" class="node">
<title>devices/drivers/generic/service&#45;adapters/dimmer&#45;adapter.js</title>
<path fill="none" stroke="#c6c5fe" d="M2066.83,-217C2066.83,-217 1711.17,-217 1711.17,-217 1707.33,-217 1703.5,-213.17 1703.5,-209.33 1703.5,-209.33 1703.5,-201.67 1703.5,-201.67 1703.5,-197.83 1707.33,-194 1711.17,-194 1711.17,-194 2066.83,-194 2066.83,-194 2070.67,-194 2074.5,-197.83 2074.5,-201.67 2074.5,-201.67 2074.5,-209.33 2074.5,-209.33 2074.5,-213.17 2070.67,-217 2066.83,-217"/>
<text text-anchor="middle" x="1889" y="-201.8" font-family="Arial" font-size="14.00" fill="#c6c5fe">devices/drivers/generic/service&#45;adapters/dimmer&#45;adapter.js</text>
</g>
<!-- devices/drivers/generic/generic&#45;driver.js&#45;&gt;devices/drivers/generic/service&#45;adapters/dimmer&#45;adapter.js -->
<g id="edge29" class="edge">
<title>devices/drivers/generic/generic&#45;driver.js&#45;&gt;devices/drivers/generic/service&#45;adapters/dimmer&#45;adapter.js</title>
<path fill="none" stroke="#757575" d="M1655.07,-209.39C1667.42,-209.19 1680.15,-208.97 1692.98,-208.76"/>
<polygon fill="#757575" stroke="#757575" points="1693.35,-212.25 1703.29,-208.59 1693.23,-205.25 1693.35,-212.25"/>
</g>
<!-- devices/drivers/generic/service&#45;adapters/grow&#45;pod&#45;adapter.js -->
<g id="node25" class="node">
<title>devices/drivers/generic/service&#45;adapters/grow&#45;pod&#45;adapter.js</title>
<path fill="none" stroke="#c6c5fe" d="M2071.83,-176C2071.83,-176 1706.17,-176 1706.17,-176 1702.33,-176 1698.5,-172.17 1698.5,-168.33 1698.5,-168.33 1698.5,-160.67 1698.5,-160.67 1698.5,-156.83 1702.33,-153 1706.17,-153 1706.17,-153 2071.83,-153 2071.83,-153 2075.67,-153 2079.5,-156.83 2079.5,-160.67 2079.5,-160.67 2079.5,-168.33 2079.5,-168.33 2079.5,-172.17 2075.67,-176 2071.83,-176"/>
<text text-anchor="middle" x="1889" y="-160.8" font-family="Arial" font-size="14.00" fill="#c6c5fe">devices/drivers/generic/service&#45;adapters/grow&#45;pod&#45;adapter.js</text>
</g>
<!-- devices/drivers/generic/generic&#45;driver.js&#45;&gt;devices/drivers/generic/service&#45;adapters/grow&#45;pod&#45;adapter.js -->
<g id="edge30" class="edge">
<title>devices/drivers/generic/generic&#45;driver.js&#45;&gt;devices/drivers/generic/service&#45;adapters/grow&#45;pod&#45;adapter.js</title>
<path fill="none" stroke="#757575" d="M1592.33,-199.98C1622.2,-194.8 1658.36,-188.87 1691,-184.5 1710.84,-181.84 1731.84,-179.36 1752.46,-177.11"/>
<polygon fill="#757575" stroke="#757575" points="1752.97,-180.57 1762.54,-176.02 1752.22,-173.61 1752.97,-180.57"/>
</g>
<!-- devices/drivers/generic/service&#45;adapters/light&#45;adapter.js -->
<g id="node26" class="node">
<title>devices/drivers/generic/service&#45;adapters/light&#45;adapter.js</title>
<path fill="none" stroke="#c6c5fe" d="M2056.33,-135C2056.33,-135 1721.67,-135 1721.67,-135 1717.83,-135 1714,-131.17 1714,-127.33 1714,-127.33 1714,-119.67 1714,-119.67 1714,-115.83 1717.83,-112 1721.67,-112 1721.67,-112 2056.33,-112 2056.33,-112 2060.17,-112 2064,-115.83 2064,-119.67 2064,-119.67 2064,-127.33 2064,-127.33 2064,-131.17 2060.17,-135 2056.33,-135"/>
<text text-anchor="middle" x="1889" y="-119.8" font-family="Arial" font-size="14.00" fill="#c6c5fe">devices/drivers/generic/service&#45;adapters/light&#45;adapter.js</text>
</g>
<!-- devices/drivers/generic/generic&#45;driver.js&#45;&gt;devices/drivers/generic/service&#45;adapters/light&#45;adapter.js -->
<g id="edge31" class="edge">
<title>devices/drivers/generic/generic&#45;driver.js&#45;&gt;devices/drivers/generic/service&#45;adapters/light&#45;adapter.js</title>
<path fill="none" stroke="#757575" d="M1550.81,-199.88C1581.27,-184.23 1638.68,-156.82 1691,-143.5 1700.97,-140.96 1711.31,-138.74 1721.78,-136.8"/>
<polygon fill="#757575" stroke="#757575" points="1722.62,-140.21 1731.86,-135.03 1721.4,-133.32 1722.62,-140.21"/>
</g>
<!-- devices/drivers/generic/service&#45;adapters/microphone&#45;adapter.js -->
<g id="node27" class="node">
<title>devices/drivers/generic/service&#45;adapters/microphone&#45;adapter.js</title>
<path fill="none" stroke="#c6c5fe" d="M2079.33,-94C2079.33,-94 1698.67,-94 1698.67,-94 1694.83,-94 1691,-90.17 1691,-86.33 1691,-86.33 1691,-78.67 1691,-78.67 1691,-74.83 1694.83,-71 1698.67,-71 1698.67,-71 2079.33,-71 2079.33,-71 2083.17,-71 2087,-74.83 2087,-78.67 2087,-78.67 2087,-86.33 2087,-86.33 2087,-90.17 2083.17,-94 2079.33,-94"/>
<text text-anchor="middle" x="1889" y="-78.8" font-family="Arial" font-size="14.00" fill="#c6c5fe">devices/drivers/generic/service&#45;adapters/microphone&#45;adapter.js</text>
</g>
<!-- devices/drivers/generic/generic&#45;driver.js&#45;&gt;devices/drivers/generic/service&#45;adapters/microphone&#45;adapter.js -->
<g id="edge32" class="edge">
<title>devices/drivers/generic/generic&#45;driver.js&#45;&gt;devices/drivers/generic/service&#45;adapters/microphone&#45;adapter.js</title>
<path fill="none" stroke="#757575" d="M1541.62,-199.71C1567.38,-176.45 1628.83,-124.96 1691,-102.5 1696.94,-100.35 1703.04,-98.41 1709.26,-96.66"/>
<polygon fill="#757575" stroke="#757575" points="1710.33,-99.99 1719.1,-94.05 1708.53,-93.23 1710.33,-99.99"/>
</g>
<!-- devices/drivers/generic/service&#45;adapters/motion&#45;adapter.js -->
<g id="node28" class="node">
<title>devices/drivers/generic/service&#45;adapters/motion&#45;adapter.js</title>
<path fill="none" stroke="#c6c5fe" d="M2064.33,-53C2064.33,-53 1713.67,-53 1713.67,-53 1709.83,-53 1706,-49.17 1706,-45.33 1706,-45.33 1706,-37.67 1706,-37.67 1706,-33.83 1709.83,-30 1713.67,-30 1713.67,-30 2064.33,-30 2064.33,-30 2068.17,-30 2072,-33.83 2072,-37.67 2072,-37.67 2072,-45.33 2072,-45.33 2072,-49.17 2068.17,-53 2064.33,-53"/>
<text text-anchor="middle" x="1889" y="-37.8" font-family="Arial" font-size="14.00" fill="#c6c5fe">devices/drivers/generic/service&#45;adapters/motion&#45;adapter.js</text>
</g>
<!-- devices/drivers/generic/generic&#45;driver.js&#45;&gt;devices/drivers/generic/service&#45;adapters/motion&#45;adapter.js -->
<g id="edge33" class="edge">
<title>devices/drivers/generic/generic&#45;driver.js&#45;&gt;devices/drivers/generic/service&#45;adapters/motion&#45;adapter.js</title>
<path fill="none" stroke="#757575" d="M1537.2,-199.86C1558.58,-170.57 1619.38,-93.83 1691,-61.5 1695.12,-59.64 1699.34,-57.92 1703.63,-56.32"/>
<polygon fill="#757575" stroke="#757575" points="1704.83,-59.61 1713.14,-53.04 1702.55,-53 1704.83,-59.61"/>
</g>
<!-- devices/drivers/generic/service&#45;adapters/scale&#45;adapter.js -->
<g id="node29" class="node">
<title>devices/drivers/generic/service&#45;adapters/scale&#45;adapter.js</title>
<path fill="none" stroke="#c6c5fe" d="M2059.33,-338C2059.33,-338 1718.67,-338 1718.67,-338 1714.83,-338 1711,-334.17 1711,-330.33 1711,-330.33 1711,-322.67 1711,-322.67 1711,-318.83 1714.83,-315 1718.67,-315 1718.67,-315 2059.33,-315 2059.33,-315 2063.17,-315 2067,-318.83 2067,-322.67 2067,-322.67 2067,-330.33 2067,-330.33 2067,-334.17 2063.17,-338 2059.33,-338"/>
<text text-anchor="middle" x="1889" y="-322.8" font-family="Arial" font-size="14.00" fill="#c6c5fe">devices/drivers/generic/service&#45;adapters/scale&#45;adapter.js</text>
</g>
<!-- devices/drivers/generic/generic&#45;driver.js&#45;&gt;devices/drivers/generic/service&#45;adapters/scale&#45;adapter.js -->
<g id="edge34" class="edge">
<title>devices/drivers/generic/generic&#45;driver.js&#45;&gt;devices/drivers/generic/service&#45;adapters/scale&#45;adapter.js</title>
<path fill="none" stroke="#757575" d="M1627.47,-223.1C1637.29,-226.76 1646.68,-231.47 1655,-237.5 1681.1,-256.44 1664.23,-282.52 1691,-300.5 1696.77,-304.38 1702.86,-307.8 1709.17,-310.83"/>
<polygon fill="#757575" stroke="#757575" points="1708.01,-314.14 1718.57,-314.98 1710.83,-307.74 1708.01,-314.14"/>
</g>
<!-- devices/drivers/generic/service&#45;adapters/service&#45;adapter.js -->
<g id="node30" class="node">
<title>devices/drivers/generic/service&#45;adapters/service&#45;adapter.js</title>
<path fill="none" stroke="#cfffac" d="M2483.33,-197C2483.33,-197 2130.67,-197 2130.67,-197 2126.83,-197 2123,-193.17 2123,-189.33 2123,-189.33 2123,-181.67 2123,-181.67 2123,-177.83 2126.83,-174 2130.67,-174 2130.67,-174 2483.33,-174 2483.33,-174 2487.17,-174 2491,-177.83 2491,-181.67 2491,-181.67 2491,-189.33 2491,-189.33 2491,-193.17 2487.17,-197 2483.33,-197"/>
<text text-anchor="middle" x="2307" y="-181.8" font-family="Arial" font-size="14.00" fill="#cfffac">devices/drivers/generic/service&#45;adapters/service&#45;adapter.js</text>
</g>
<!-- devices/drivers/generic/generic&#45;driver.js&#45;&gt;devices/drivers/generic/service&#45;adapters/service&#45;adapter.js -->
<g id="edge35" class="edge">
<title>devices/drivers/generic/generic&#45;driver.js&#45;&gt;devices/drivers/generic/service&#45;adapters/service&#45;adapter.js</title>
<path fill="none" stroke="#757575" d="M1613.16,-223.06C1627.51,-226.65 1641.97,-231.35 1655,-237.5 1673.58,-246.27 1671.62,-259.67 1691,-266.5 1856.98,-325.04 1913.75,-297.51 2087,-266.5 2156.23,-254.11 2232.2,-221.31 2273.99,-201.46"/>
<polygon fill="#757575" stroke="#757575" points="2275.62,-204.56 2283.11,-197.07 2272.58,-198.25 2275.62,-204.56"/>
</g>
<!-- devices/drivers/liger&#45;driver.js&#45;&gt;devices/drivers/device&#45;driver.js -->
<g id="edge43" class="edge">
<title>devices/drivers/liger&#45;driver.js&#45;&gt;devices/drivers/device&#45;driver.js</title>
<path fill="none" stroke="#757575" d="M1621.92,-369.72C1669.83,-369.32 1728.56,-368.83 1778.65,-368.41"/>
<polygon fill="#757575" stroke="#757575" points="1778.9,-371.91 1788.87,-368.33 1778.84,-364.91 1778.9,-371.91"/>
</g>
<!-- devices/drivers/standard&#45;driver.js&#45;&gt;devices/drivers/device&#45;driver.js -->
<g id="edge44" class="edge">
<title>devices/drivers/standard&#45;driver.js&#45;&gt;devices/drivers/device&#45;driver.js</title>
<path fill="none" stroke="#757575" d="M1631.39,-341.03C1651.17,-343.21 1671.72,-345.45 1691,-347.5 1719.44,-350.52 1750.2,-353.69 1778.77,-356.6"/>
<polygon fill="#757575" stroke="#757575" points="1778.47,-360.08 1788.77,-357.61 1779.18,-353.12 1778.47,-360.08"/>
</g>
<!-- services/bill&#45;acceptor&#45;service.js -->
<g id="node37" class="node">
<title>services/bill&#45;acceptor&#45;service.js</title>
<path fill="none" stroke="#c6c5fe" d="M1982.83,-623C1982.83,-623 1795.17,-623 1795.17,-623 1791.33,-623 1787.5,-619.17 1787.5,-615.33 1787.5,-615.33 1787.5,-607.67 1787.5,-607.67 1787.5,-603.83 1791.33,-600 1795.17,-600 1795.17,-600 1982.83,-600 1982.83,-600 1986.67,-600 1990.5,-603.83 1990.5,-607.67 1990.5,-607.67 1990.5,-615.33 1990.5,-615.33 1990.5,-619.17 1986.67,-623 1982.83,-623"/>
<text text-anchor="middle" x="1889" y="-607.8" font-family="Arial" font-size="14.00" fill="#c6c5fe">services/bill&#45;acceptor&#45;service.js</text>
</g>
<!-- services/services&#45;manager.js&#45;&gt;services/bill&#45;acceptor&#45;service.js -->
<g id="edge78" class="edge">
<title>services/services&#45;manager.js&#45;&gt;services/bill&#45;acceptor&#45;service.js</title>
<path fill="none" stroke="#757575" d="M1534.56,-822.83C1551.96,-787.77 1609.12,-682.97 1691,-637.5 1716.9,-623.12 1747.59,-615.46 1776.94,-611.63"/>
<polygon fill="#757575" stroke="#757575" points="1777.73,-615.06 1787.26,-610.43 1776.92,-608.11 1777.73,-615.06"/>
</g>
<!-- services/service.js -->
<g id="node38" class="node">
<title>services/service.js</title>
<path fill="none" stroke="#c6c5fe" d="M2362.33,-846C2362.33,-846 2251.67,-846 2251.67,-846 2247.83,-846 2244,-842.17 2244,-838.33 2244,-838.33 2244,-830.67 2244,-830.67 2244,-826.83 2247.83,-823 2251.67,-823 2251.67,-823 2362.33,-823 2362.33,-823 2366.17,-823 2370,-826.83 2370,-830.67 2370,-830.67 2370,-838.33 2370,-838.33 2370,-842.17 2366.17,-846 2362.33,-846"/>
<text text-anchor="middle" x="2307" y="-830.8" font-family="Arial" font-size="14.00" fill="#c6c5fe">services/service.js</text>
</g>
<!-- services/services&#45;manager.js&#45;&gt;services/service.js -->
<g id="edge94" class="edge">
<title>services/services&#45;manager.js&#45;&gt;services/service.js</title>
<path fill="none" stroke="#757575" d="M1535.87,-822.82C1555.32,-791.06 1614.38,-703.38 1691,-671.5 1772.25,-637.7 2003.47,-643.82 2087,-671.5 2174,-700.32 2254.52,-778.61 2288.71,-815.18"/>
<polygon fill="#757575" stroke="#757575" points="2286.31,-817.74 2295.66,-822.73 2291.46,-813 2286.31,-817.74"/>
</g>
<!-- services/button&#45;service.js -->
<g id="node39" class="node">
<title>services/button&#45;service.js</title>
<path fill="none" stroke="#c6c5fe" d="M1965.33,-582C1965.33,-582 1812.67,-582 1812.67,-582 1808.83,-582 1805,-578.17 1805,-574.33 1805,-574.33 1805,-566.67 1805,-566.67 1805,-562.83 1808.83,-559 1812.67,-559 1812.67,-559 1965.33,-559 1965.33,-559 1969.17,-559 1973,-562.83 1973,-566.67 1973,-566.67 1973,-574.33 1973,-574.33 1973,-578.17 1969.17,-582 1965.33,-582"/>
<text text-anchor="middle" x="1889" y="-566.8" font-family="Arial" font-size="14.00" fill="#c6c5fe">services/button&#45;service.js</text>
</g>
<!-- services/services&#45;manager.js&#45;&gt;services/button&#45;service.js -->
<g id="edge79" class="edge">
<title>services/services&#45;manager.js&#45;&gt;services/button&#45;service.js</title>
<path fill="none" stroke="#757575" d="M1532.67,-822.99C1546.16,-782.84 1597.1,-648.36 1691,-591.5 1721.66,-572.93 1760,-566 1794.7,-564.31"/>
<polygon fill="#757575" stroke="#757575" points="1794.98,-567.8 1804.85,-563.96 1794.73,-560.81 1794.98,-567.8"/>
</g>
<!-- services/camera&#45;service.js -->
<g id="node40" class="node">
<title>services/camera&#45;service.js</title>
<path fill="none" stroke="#c6c5fe" d="M1969.33,-541C1969.33,-541 1808.67,-541 1808.67,-541 1804.83,-541 1801,-537.17 1801,-533.33 1801,-533.33 1801,-525.67 1801,-525.67 1801,-521.83 1804.83,-518 1808.67,-518 1808.67,-518 1969.33,-518 1969.33,-518 1973.17,-518 1977,-521.83 1977,-525.67 1977,-525.67 1977,-533.33 1977,-533.33 1977,-537.17 1973.17,-541 1969.33,-541"/>
<text text-anchor="middle" x="1889" y="-525.8" font-family="Arial" font-size="14.00" fill="#c6c5fe">services/camera&#45;service.js</text>
</g>
<!-- services/services&#45;manager.js&#45;&gt;services/camera&#45;service.js -->
<g id="edge80" class="edge">
<title>services/services&#45;manager.js&#45;&gt;services/camera&#45;service.js</title>
<path fill="none" stroke="#757575" d="M1535.34,-822.7C1563.64,-770.11 1677.7,-559.2 1691,-550.5 1719.95,-531.56 1756.57,-524.26 1790.36,-522.38"/>
<polygon fill="#757575" stroke="#757575" points="1790.89,-525.86 1800.74,-521.96 1790.61,-518.87 1790.89,-525.86"/>
</g>
<!-- services/contact&#45;sensor&#45;service.js -->
<g id="node41" class="node">
<title>services/contact&#45;sensor&#45;service.js</title>
<path fill="none" stroke="#c6c5fe" d="M1990.83,-500C1990.83,-500 1787.17,-500 1787.17,-500 1783.33,-500 1779.5,-496.17 1779.5,-492.33 1779.5,-492.33 1779.5,-484.67 1779.5,-484.67 1779.5,-480.83 1783.33,-477 1787.17,-477 1787.17,-477 1990.83,-477 1990.83,-477 1994.67,-477 1998.5,-480.83 1998.5,-484.67 1998.5,-484.67 1998.5,-492.33 1998.5,-492.33 1998.5,-496.17 1994.67,-500 1990.83,-500"/>
<text text-anchor="middle" x="1889" y="-484.8" font-family="Arial" font-size="14.00" fill="#c6c5fe">services/contact&#45;sensor&#45;service.js</text>
</g>
<!-- services/services&#45;manager.js&#45;&gt;services/contact&#45;sensor&#45;service.js -->
<g id="edge81" class="edge">
<title>services/services&#45;manager.js&#45;&gt;services/contact&#45;sensor&#45;service.js</title>
<path fill="none" stroke="#757575" d="M1536.11,-822.7C1556.25,-789.05 1614.77,-689.44 1655,-602.5 1673.61,-562.28 1655.82,-536.46 1691,-509.5 1713.25,-492.45 1741.3,-484.13 1769.19,-480.7"/>
<polygon fill="#757575" stroke="#757575" points="1769.86,-484.16 1779.45,-479.66 1769.15,-477.19 1769.86,-484.16"/>
</g>
<!-- services/dimmer&#45;service.js -->
<g id="node42" class="node">
<title>services/dimmer&#45;service.js</title>
<path fill="none" stroke="#c6c5fe" d="M1969.83,-1236C1969.83,-1236 1808.17,-1236 1808.17,-1236 1804.33,-1236 1800.5,-1232.17 1800.5,-1228.33 1800.5,-1228.33 1800.5,-1220.67 1800.5,-1220.67 1800.5,-1216.83 1804.33,-1213 1808.17,-1213 1808.17,-1213 1969.83,-1213 1969.83,-1213 1973.67,-1213 1977.5,-1216.83 1977.5,-1220.67 1977.5,-1220.67 1977.5,-1228.33 1977.5,-1228.33 1977.5,-1232.17 1973.67,-1236 1969.83,-1236"/>
<text text-anchor="middle" x="1889" y="-1220.8" font-family="Arial" font-size="14.00" fill="#c6c5fe">services/dimmer&#45;service.js</text>
</g>
<!-- services/services&#45;manager.js&#45;&gt;services/dimmer&#45;service.js -->
<g id="edge82" class="edge">
<title>services/services&#45;manager.js&#45;&gt;services/dimmer&#45;service.js</title>
<path fill="none" stroke="#757575" d="M1530.01,-846.06C1535.23,-898.1 1564.04,-1112.01 1691,-1204.5 1719.2,-1225.04 1756,-1232.44 1790.15,-1233.89"/>
<polygon fill="#757575" stroke="#757575" points="1790.08,-1237.39 1800.17,-1234.15 1790.27,-1230.39 1790.08,-1237.39"/>
</g>
<!-- services/event&#45;mock&#45;service.js -->
<g id="node43" class="node">
<title>services/event&#45;mock&#45;service.js</title>
<path fill="none" stroke="#c6c5fe" d="M1981.83,-1195C1981.83,-1195 1796.17,-1195 1796.17,-1195 1792.33,-1195 1788.5,-1191.17 1788.5,-1187.33 1788.5,-1187.33 1788.5,-1179.67 1788.5,-1179.67 1788.5,-1175.83 1792.33,-1172 1796.17,-1172 1796.17,-1172 1981.83,-1172 1981.83,-1172 1985.67,-1172 1989.5,-1175.83 1989.5,-1179.67 1989.5,-1179.67 1989.5,-1187.33 1989.5,-1187.33 1989.5,-1191.17 1985.67,-1195 1981.83,-1195"/>
<text text-anchor="middle" x="1889" y="-1179.8" font-family="Arial" font-size="14.00" fill="#c6c5fe">services/event&#45;mock&#45;service.js</text>
</g>
<!-- services/services&#45;manager.js&#45;&gt;services/event&#45;mock&#45;service.js -->
<g id="edge83" class="edge">
<title>services/services&#45;manager.js&#45;&gt;services/event&#45;mock&#45;service.js</title>
<path fill="none" stroke="#757575" d="M1530.67,-846.1C1538.34,-894.67 1574.92,-1082.85 1691,-1163.5 1716.17,-1180.99 1747.71,-1188.72 1778.13,-1191.37"/>
<polygon fill="#757575" stroke="#757575" points="1778.17,-1194.88 1788.39,-1192.08 1778.65,-1187.9 1778.17,-1194.88"/>
</g>
<!-- services/game&#45;machine&#45;service.js -->
<g id="node44" class="node">
<title>services/game&#45;machine&#45;service.js</title>
<path fill="none" stroke="#c6c5fe" d="M1991.83,-1154C1991.83,-1154 1786.17,-1154 1786.17,-1154 1782.33,-1154 1778.5,-1150.17 1778.5,-1146.33 1778.5,-1146.33 1778.5,-1138.67 1778.5,-1138.67 1778.5,-1134.83 1782.33,-1131 1786.17,-1131 1786.17,-1131 1991.83,-1131 1991.83,-1131 1995.67,-1131 1999.5,-1134.83 1999.5,-1138.67 1999.5,-1138.67 1999.5,-1146.33 1999.5,-1146.33 1999.5,-1150.17 1995.67,-1154 1991.83,-1154"/>
<text text-anchor="middle" x="1889" y="-1138.8" font-family="Arial" font-size="14.00" fill="#c6c5fe">services/game&#45;machine&#45;service.js</text>
</g>
<!-- services/services&#45;manager.js&#45;&gt;services/game&#45;machine&#45;service.js -->
<g id="edge84" class="edge">
<title>services/services&#45;manager.js&#45;&gt;services/game&#45;machine&#45;service.js</title>
<path fill="none" stroke="#757575" d="M1531.52,-846.19C1541.86,-891.1 1585.66,-1053.51 1691,-1122.5 1713.73,-1137.39 1741.21,-1144.99 1768.33,-1148.38"/>
<polygon fill="#757575" stroke="#757575" points="1767.98,-1151.86 1778.3,-1149.45 1768.73,-1144.9 1767.98,-1151.86"/>
</g>
<!-- services/gateway&#45;service.js -->
<g id="node45" class="node">
<title>services/gateway&#45;service.js</title>
<path fill="none" stroke="#c6c5fe" d="M1971.83,-1113C1971.83,-1113 1806.17,-1113 1806.17,-1113 1802.33,-1113 1798.5,-1109.17 1798.5,-1105.33 1798.5,-1105.33 1798.5,-1097.67 1798.5,-1097.67 1798.5,-1093.83 1802.33,-1090 1806.17,-1090 1806.17,-1090 1971.83,-1090 1971.83,-1090 1975.67,-1090 1979.5,-1093.83 1979.5,-1097.67 1979.5,-1097.67 1979.5,-1105.33 1979.5,-1105.33 1979.5,-1109.17 1975.67,-1113 1971.83,-1113"/>
<text text-anchor="middle" x="1889" y="-1097.8" font-family="Arial" font-size="14.00" fill="#c6c5fe">services/gateway&#45;service.js</text>
</g>
<!-- services/services&#45;manager.js&#45;&gt;services/gateway&#45;service.js -->
<g id="edge85" class="edge">
<title>services/services&#45;manager.js&#45;&gt;services/gateway&#45;service.js</title>
<path fill="none" stroke="#757575" d="M1532.6,-846.21C1545.85,-887.06 1596.1,-1023.87 1691,-1081.5 1719.76,-1098.96 1755.32,-1106 1788.29,-1108.02"/>
<polygon fill="#757575" stroke="#757575" points="1788.27,-1111.53 1798.42,-1108.5 1788.6,-1104.53 1788.27,-1111.53"/>
</g>
<!-- services/global&#45;alarm&#45;service.js -->
<g id="node46" class="node">
<title>services/global&#45;alarm&#45;service.js</title>
<path fill="none" stroke="#c6c5fe" d="M1984.33,-1072C1984.33,-1072 1793.67,-1072 1793.67,-1072 1789.83,-1072 1786,-1068.17 1786,-1064.33 1786,-1064.33 1786,-1056.67 1786,-1056.67 1786,-1052.83 1789.83,-1049 1793.67,-1049 1793.67,-1049 1984.33,-1049 1984.33,-1049 1988.17,-1049 1992,-1052.83 1992,-1056.67 1992,-1056.67 1992,-1064.33 1992,-1064.33 1992,-1068.17 1988.17,-1072 1984.33,-1072"/>
<text text-anchor="middle" x="1889" y="-1056.8" font-family="Arial" font-size="14.00" fill="#c6c5fe">services/global&#45;alarm&#45;service.js</text>
</g>
<!-- services/services&#45;manager.js&#45;&gt;services/global&#45;alarm&#45;service.js -->
<g id="edge86" class="edge">
<title>services/services&#45;manager.js&#45;&gt;services/global&#45;alarm&#45;service.js</title>
<path fill="none" stroke="#757575" d="M1533.99,-846.03C1550.32,-882.2 1606.08,-993.8 1691,-1040.5 1716.53,-1054.54 1746.75,-1061.48 1775.76,-1064.47"/>
<polygon fill="#757575" stroke="#757575" points="1775.69,-1067.98 1785.95,-1065.37 1776.3,-1061.01 1775.69,-1067.98"/>
</g>
<!-- services/grow&#45;pod&#45;service.js -->
<g id="node47" class="node">
<title>services/grow&#45;pod&#45;service.js</title>
<path fill="none" stroke="#c6c5fe" d="M1974.83,-1031C1974.83,-1031 1803.17,-1031 1803.17,-1031 1799.33,-1031 1795.5,-1027.17 1795.5,-1023.33 1795.5,-1023.33 1795.5,-1015.67 1795.5,-1015.67 1795.5,-1011.83 1799.33,-1008 1803.17,-1008 1803.17,-1008 1974.83,-1008 1974.83,-1008 1978.67,-1008 1982.5,-1011.83 1982.5,-1015.67 1982.5,-1015.67 1982.5,-1023.33 1982.5,-1023.33 1982.5,-1027.17 1978.67,-1031 1974.83,-1031"/>
<text text-anchor="middle" x="1889" y="-1015.8" font-family="Arial" font-size="14.00" fill="#c6c5fe">services/grow&#45;pod&#45;service.js</text>
</g>
<!-- services/services&#45;manager.js&#45;&gt;services/grow&#45;pod&#45;service.js -->
<g id="edge87" class="edge">
<title>services/services&#45;manager.js&#45;&gt;services/grow&#45;pod&#45;service.js</title>
<path fill="none" stroke="#757575" d="M1536.3,-846.37C1556.41,-877.84 1616.1,-963.51 1691,-999.5 1719.8,-1013.34 1753.65,-1019.76 1785.1,-1022.33"/>
<polygon fill="#757575" stroke="#757575" points="1784.99,-1025.84 1795.21,-1023.04 1785.48,-1018.85 1784.99,-1025.84"/>
</g>
<!-- services/light&#45;service.js -->
<g id="node48" class="node">
<title>services/light&#45;service.js</title>
<path fill="none" stroke="#c6c5fe" d="M1958.83,-990C1958.83,-990 1819.17,-990 1819.17,-990 1815.33,-990 1811.5,-986.17 1811.5,-982.33 1811.5,-982.33 1811.5,-974.67 1811.5,-974.67 1811.5,-970.83 1815.33,-967 1819.17,-967 1819.17,-967 1958.83,-967 1958.83,-967 1962.67,-967 1966.5,-970.83 1966.5,-974.67 1966.5,-974.67 1966.5,-982.33 1966.5,-982.33 1966.5,-986.17 1962.67,-990 1958.83,-990"/>
<text text-anchor="middle" x="1889" y="-974.8" font-family="Arial" font-size="14.00" fill="#c6c5fe">services/light&#45;service.js</text>
</g>
<!-- services/services&#45;manager.js&#45;&gt;services/light&#45;service.js -->
<g id="edge88" class="edge">
<title>services/services&#45;manager.js&#45;&gt;services/light&#45;service.js</title>
<path fill="none" stroke="#757575" d="M1539.77,-846.34C1563.93,-872.01 1625.47,-932.54 1691,-958.5 1725.47,-972.16 1765.86,-977.86 1801.07,-979.88"/>
<polygon fill="#757575" stroke="#757575" points="1801.17,-983.39 1811.33,-980.38 1801.51,-976.4 1801.17,-983.39"/>
</g>
<!-- services/lock&#45;service.js -->
<g id="node49" class="node">
<title>services/lock&#45;service.js</title>
<path fill="none" stroke="#c6c5fe" d="M1958.83,-949C1958.83,-949 1819.17,-949 1819.17,-949 1815.33,-949 1811.5,-945.17 1811.5,-941.33 1811.5,-941.33 1811.5,-933.67 1811.5,-933.67 1811.5,-929.83 1815.33,-926 1819.17,-926 1819.17,-926 1958.83,-926 1958.83,-926 1962.67,-926 1966.5,-929.83 1966.5,-933.67 1966.5,-933.67 1966.5,-941.33 1966.5,-941.33 1966.5,-945.17 1962.67,-949 1958.83,-949"/>
<text text-anchor="middle" x="1889" y="-933.8" font-family="Arial" font-size="14.00" fill="#c6c5fe">services/lock&#45;service.js</text>
</g>
<!-- services/services&#45;manager.js&#45;&gt;services/lock&#45;service.js -->
<g id="edge89" class="edge">
<title>services/services&#45;manager.js&#45;&gt;services/lock&#45;service.js</title>
<path fill="none" stroke="#757575" d="M1546.53,-846.29C1575.3,-864.96 1634.93,-900.93 1691,-917.5 1726.26,-927.92 1766.44,-933.12 1801.27,-935.65"/>
<polygon fill="#757575" stroke="#757575" points="1801.21,-939.15 1811.42,-936.32 1801.68,-932.17 1801.21,-939.15"/>
</g>
<!-- services/media&#45;service.js -->
<g id="node50" class="node">
<title>services/media&#45;service.js</title>
<path fill="none" stroke="#c6c5fe" d="M1965.33,-908C1965.33,-908 1812.67,-908 1812.67,-908 1808.83,-908 1805,-904.17 1805,-900.33 1805,-900.33 1805,-892.67 1805,-892.67 1805,-888.83 1808.83,-885 1812.67,-885 1812.67,-885 1965.33,-885 1965.33,-885 1969.17,-885 1973,-888.83 1973,-892.67 1973,-892.67 1973,-900.33 1973,-900.33 1973,-904.17 1969.17,-908 1965.33,-908"/>
<text text-anchor="middle" x="1889" y="-892.8" font-family="Arial" font-size="14.00" fill="#c6c5fe">services/media&#45;service.js</text>
</g>
<!-- services/services&#45;manager.js&#45;&gt;services/media&#45;service.js -->
<g id="edge90" class="edge">
<title>services/services&#45;manager.js&#45;&gt;services/media&#45;service.js</title>
<path fill="none" stroke="#757575" d="M1566.93,-846.09C1599.54,-855.62 1647.96,-868.78 1691,-876.5 1724.58,-882.52 1761.73,-886.88 1794.63,-889.96"/>
<polygon fill="#757575" stroke="#757575" points="1794.42,-893.45 1804.7,-890.87 1795.05,-886.48 1794.42,-893.45"/>
</g>
<!-- services/microphone&#45;service.js -->
<g id="node51" class="node">
<title>services/microphone&#45;service.js</title>
<path fill="none" stroke="#c6c5fe" d="M1982.33,-867C1982.33,-867 1795.67,-867 1795.67,-867 1791.83,-867 1788,-863.17 1788,-859.33 1788,-859.33 1788,-851.67 1788,-851.67 1788,-847.83 1791.83,-844 1795.67,-844 1795.67,-844 1982.33,-844 1982.33,-844 1986.17,-844 1990,-847.83 1990,-851.67 1990,-851.67 1990,-859.33 1990,-859.33 1990,-863.17 1986.17,-867 1982.33,-867"/>
<text text-anchor="middle" x="1889" y="-851.8" font-family="Arial" font-size="14.00" fill="#c6c5fe">services/microphone&#45;service.js</text>
</g>
<!-- services/services&#45;manager.js&#45;&gt;services/microphone&#45;service.js -->
<g id="edge91" class="edge">
<title>services/services&#45;manager.js&#45;&gt;services/microphone&#45;service.js</title>
<path fill="none" stroke="#757575" d="M1623.79,-840.04C1671.12,-842.81 1728.63,-846.18 1777.9,-849.06"/>
<polygon fill="#757575" stroke="#757575" points="1777.77,-852.56 1787.96,-849.65 1778.18,-845.57 1777.77,-852.56"/>
</g>
<!-- services/motion&#45;service.js -->
<g id="node52" class="node">
<title>services/motion&#45;service.js</title>
<path fill="none" stroke="#c6c5fe" d="M1967.33,-826C1967.33,-826 1810.67,-826 1810.67,-826 1806.83,-826 1803,-822.17 1803,-818.33 1803,-818.33 1803,-810.67 1803,-810.67 1803,-806.83 1806.83,-803 1810.67,-803 1810.67,-803 1967.33,-803 1967.33,-803 1971.17,-803 1975,-806.83 1975,-810.67 1975,-810.67 1975,-818.33 1975,-818.33 1975,-822.17 1971.17,-826 1967.33,-826"/>
<text text-anchor="middle" x="1889" y="-810.8" font-family="Arial" font-size="14.00" fill="#c6c5fe">services/motion&#45;service.js</text>
</g>
<!-- services/services&#45;manager.js&#45;&gt;services/motion&#45;service.js -->
<g id="edge92" class="edge">
<title>services/services&#45;manager.js&#45;&gt;services/motion&#45;service.js</title>
<path fill="none" stroke="#757575" d="M1623.79,-829.22C1675.89,-826.32 1740.34,-822.73 1792.54,-819.82"/>
<polygon fill="#757575" stroke="#757575" points="1793.02,-823.3 1802.81,-819.25 1792.63,-816.31 1793.02,-823.3"/>
</g>
<!-- services/scale&#45;service.js -->
<g id="node53" class="node">
<title>services/scale&#45;service.js</title>
<path fill="none" stroke="#c6c5fe" d="M1962.33,-785C1962.33,-785 1815.67,-785 1815.67,-785 1811.83,-785 1808,-781.17 1808,-777.33 1808,-777.33 1808,-769.67 1808,-769.67 1808,-765.83 1811.83,-762 1815.67,-762 1815.67,-762 1962.33,-762 1962.33,-762 1966.17,-762 1970,-765.83 1970,-769.67 1970,-769.67 1970,-777.33 1970,-777.33 1970,-781.17 1966.17,-785 1962.33,-785"/>
<text text-anchor="middle" x="1889" y="-769.8" font-family="Arial" font-size="14.00" fill="#c6c5fe">services/scale&#45;service.js</text>
</g>
<!-- services/services&#45;manager.js&#45;&gt;services/scale&#45;service.js -->
<g id="edge93" class="edge">
<title>services/services&#45;manager.js&#45;&gt;services/scale&#45;service.js</title>
<path fill="none" stroke="#757575" d="M1569.29,-822.93C1601.87,-813.97 1649.06,-801.88 1691,-794.5 1725.54,-788.42 1763.81,-783.86 1797.37,-780.56"/>
<polygon fill="#757575" stroke="#757575" points="1798,-784.02 1807.62,-779.58 1797.33,-777.05 1798,-784.02"/>
</g>
<!-- services/siren&#45;service.js -->
<g id="node54" class="node">
<title>services/siren&#45;service.js</title>
<path fill="none" stroke="#c6c5fe" d="M1961.33,-744C1961.33,-744 1816.67,-744 1816.67,-744 1812.83,-744 1809,-740.17 1809,-736.33 1809,-736.33 1809,-728.67 1809,-728.67 1809,-724.83 1812.83,-721 1816.67,-721 1816.67,-721 1961.33,-721 1961.33,-721 1965.17,-721 1969,-724.83 1969,-728.67 1969,-728.67 1969,-736.33 1969,-736.33 1969,-740.17 1965.17,-744 1961.33,-744"/>
<text text-anchor="middle" x="1889" y="-728.8" font-family="Arial" font-size="14.00" fill="#c6c5fe">services/siren&#45;service.js</text>
</g>
<!-- services/services&#45;manager.js&#45;&gt;services/siren&#45;service.js -->
<g id="edge95" class="edge">
<title>services/services&#45;manager.js&#45;&gt;services/siren&#45;service.js</title>
<path fill="none" stroke="#757575" d="M1547.06,-822.74C1576.08,-804.49 1635.47,-769.76 1691,-753.5 1725.4,-743.42 1764.44,-738.07 1798.64,-735.27"/>
<polygon fill="#757575" stroke="#757575" points="1798.91,-738.76 1808.62,-734.51 1798.38,-731.78 1798.91,-738.76"/>
</g>
<!-- services/thermostat&#45;service.js -->
<g id="node55" class="node">
<title>services/thermostat&#45;service.js</title>
<path fill="none" stroke="#c6c5fe" d="M1978.83,-703C1978.83,-703 1799.17,-703 1799.17,-703 1795.33,-703 1791.5,-699.17 1791.5,-695.33 1791.5,-695.33 1791.5,-687.67 1791.5,-687.67 1791.5,-683.83 1795.33,-680 1799.17,-680 1799.17,-680 1978.83,-680 1978.83,-680 1982.67,-680 1986.5,-683.83 1986.5,-687.67 1986.5,-687.67 1986.5,-695.33 1986.5,-695.33 1986.5,-699.17 1982.67,-703 1978.83,-703"/>
<text text-anchor="middle" x="1889" y="-687.8" font-family="Arial" font-size="14.00" fill="#c6c5fe">services/thermostat&#45;service.js</text>
</g>
<!-- services/services&#45;manager.js&#45;&gt;services/thermostat&#45;service.js -->
<g id="edge96" class="edge">
<title>services/services&#45;manager.js&#45;&gt;services/thermostat&#45;service.js</title>
<path fill="none" stroke="#757575" d="M1539.82,-822.87C1564.09,-797.67 1625.83,-738.22 1691,-712.5 1719.17,-701.38 1751.27,-695.43 1781.26,-692.4"/>
<polygon fill="#757575" stroke="#757575" points="1781.69,-695.88 1791.34,-691.49 1781.06,-688.91 1781.69,-695.88"/>
</g>
<!-- devices/drivers/generic/service&#45;adapters/button&#45;adapter.js&#45;&gt;devices/drivers/generic/service&#45;adapters/service&#45;adapter.js -->
<g id="edge36" class="edge">
<title>devices/drivers/generic/service&#45;adapters/button&#45;adapter.js&#45;&gt;devices/drivers/generic/service&#45;adapters/service&#45;adapter.js</title>
<path fill="none" stroke="#757575" d="M2011.55,-234.98C2036.55,-232.2 2062.66,-229.02 2087,-225.5 2138.46,-218.07 2196.31,-207.4 2239.62,-198.95"/>
<polygon fill="#757575" stroke="#757575" points="2240.33,-202.38 2249.47,-197.02 2238.98,-195.51 2240.33,-202.38"/>
</g>
<!-- devices/drivers/generic/service&#45;adapters/dimmer&#45;adapter.js&#45;&gt;devices/drivers/generic/service&#45;adapters/service&#45;adapter.js -->
<g id="edge37" class="edge">
<title>devices/drivers/generic/service&#45;adapters/dimmer&#45;adapter.js&#45;&gt;devices/drivers/generic/service&#45;adapters/service&#45;adapter.js</title>
<path fill="none" stroke="#757575" d="M2074.58,-196.63C2087.26,-196.02 2100.06,-195.4 2112.79,-194.79"/>
<polygon fill="#757575" stroke="#757575" points="2113.15,-198.28 2122.97,-194.3 2112.81,-191.28 2113.15,-198.28"/>
</g>
<!-- devices/drivers/generic/service&#45;adapters/grow&#45;pod&#45;adapter.js&#45;&gt;devices/drivers/generic/service&#45;adapters/service&#45;adapter.js -->
<g id="edge38" class="edge">
<title>devices/drivers/generic/service&#45;adapters/grow&#45;pod&#45;adapter.js&#45;&gt;devices/drivers/generic/service&#45;adapters/service&#45;adapter.js</title>
<path fill="none" stroke="#757575" d="M2079.74,-174.08C2090.73,-174.63 2101.79,-175.19 2112.8,-175.75"/>
<polygon fill="#757575" stroke="#757575" points="2112.72,-179.25 2122.89,-176.26 2113.08,-172.26 2112.72,-179.25"/>
</g>
<!-- devices/drivers/generic/service&#45;adapters/light&#45;adapter.js&#45;&gt;devices/drivers/generic/service&#45;adapters/service&#45;adapter.js -->
<g id="edge39" class="edge">
<title>devices/drivers/generic/service&#45;adapters/light&#45;adapter.js&#45;&gt;devices/drivers/generic/service&#45;adapters/service&#45;adapter.js</title>
<path fill="none" stroke="#757575" d="M2019.75,-135.03C2042.21,-137.49 2065.32,-140.33 2087,-143.5 2139.95,-151.25 2199.57,-162.88 2243.22,-171.93"/>
<polygon fill="#757575" stroke="#757575" points="2242.61,-175.38 2253.12,-174 2244.04,-168.53 2242.61,-175.38"/>
</g>
<!-- devices/drivers/generic/service&#45;adapters/microphone&#45;adapter.js&#45;&gt;devices/drivers/generic/service&#45;adapters/service&#45;adapter.js -->
<g id="edge40" class="edge">
<title>devices/drivers/generic/service&#45;adapters/microphone&#45;adapter.js&#45;&gt;devices/drivers/generic/service&#45;adapters/service&#45;adapter.js</title>
<path fill="none" stroke="#757575" d="M2042.84,-94.03C2057.85,-96.35 2072.78,-99.14 2087,-102.5 2154.92,-118.53 2230.2,-150.37 2272.45,-169.62"/>
<polygon fill="#757575" stroke="#757575" points="2271.15,-172.88 2281.7,-173.87 2274.08,-166.52 2271.15,-172.88"/>
</g>
<!-- devices/drivers/generic/service&#45;adapters/motion&#45;adapter.js&#45;&gt;devices/drivers/generic/service&#45;adapters/service&#45;adapter.js -->
<g id="edge41" class="edge">
<title>devices/drivers/generic/service&#45;adapters/motion&#45;adapter.js&#45;&gt;devices/drivers/generic/service&#45;adapters/service&#45;adapter.js</title>
<path fill="none" stroke="#757575" d="M2054.72,-53.03C2065.75,-55.39 2076.6,-58.19 2087,-61.5 2163.89,-85.98 2243.83,-139.68 2282.39,-167.7"/>
<polygon fill="#757575" stroke="#757575" points="2280.71,-170.81 2290.84,-173.91 2284.86,-165.17 2280.71,-170.81"/>
</g>
<!-- devices/drivers/generic/service&#45;adapters/scale&#45;adapter.js&#45;&gt;devices/drivers/generic/service&#45;adapters/service&#45;adapter.js -->
<g id="edge42" class="edge">
<title>devices/drivers/generic/service&#45;adapters/scale&#45;adapter.js&#45;&gt;devices/drivers/generic/service&#45;adapters/service&#45;adapter.js</title>
<path fill="none" stroke="#757575" d="M2025.7,-314.99C2046.5,-311.4 2067.52,-306.68 2087,-300.5 2161.46,-276.86 2240.68,-228.75 2280.3,-202.88"/>
<polygon fill="#757575" stroke="#757575" points="2282.62,-205.54 2289.04,-197.11 2278.77,-199.7 2282.62,-205.54"/>
</g>
<!-- http&#45;server.js -->
<g id="node31" class="node">
<title>http&#45;server.js</title>
<path fill="none" stroke="#cfffac" d="M215.33,-105C215.33,-105 136.67,-105 136.67,-105 132.83,-105 129,-101.17 129,-97.33 129,-97.33 129,-89.67 129,-89.67 129,-85.83 132.83,-82 136.67,-82 136.67,-82 215.33,-82 215.33,-82 219.17,-82 223,-85.83 223,-89.67 223,-89.67 223,-97.33 223,-97.33 223,-101.17 219.17,-105 215.33,-105"/>
<text text-anchor="middle" x="176" y="-89.8" font-family="Arial" font-size="14.00" fill="#cfffac">http&#45;server.js</text>
</g>
<!-- index.js -->
<g id="node32" class="node">
<title>index.js</title>
<path fill="none" stroke="#c6c5fe" d="M54.33,-281C54.33,-281 7.67,-281 7.67,-281 3.83,-281 0,-277.17 0,-273.33 0,-273.33 0,-265.67 0,-265.67 0,-261.83 3.83,-258 7.67,-258 7.67,-258 54.33,-258 54.33,-258 58.17,-258 62,-261.83 62,-265.67 62,-265.67 62,-273.33 62,-273.33 62,-277.17 58.17,-281 54.33,-281"/>
<text text-anchor="middle" x="31" y="-265.8" font-family="Arial" font-size="14.00" fill="#c6c5fe">index.js</text>
</g>
<!-- index.js&#45;&gt;devices/devices&#45;manager.js -->
<g id="edge50" class="edge">
<title>index.js&#45;&gt;devices/devices&#45;manager.js</title>
<path fill="none" stroke="#757575" d="M38.67,-257.99C49.06,-241.16 70.78,-210.14 98,-194.5 219.94,-124.43 267.86,-133.5 408.5,-133.5 408.5,-133.5 408.5,-133.5 679.5,-133.5 818.43,-133.5 874.46,-83.88 991,-159.5 1067.25,-208.98 1101.48,-320.98 1112.87,-368.04"/>
<polygon fill="#757575" stroke="#757575" points="1109.47,-368.84 1115.13,-377.8 1116.29,-367.26 1109.47,-368.84"/>
</g>
<!-- index.js&#45;&gt;accounts/accounts&#45;manager.js -->
<g id="edge45" class="edge">
<title>index.js&#45;&gt;accounts/accounts&#45;manager.js</title>
<path fill="none" stroke="#757575" d="M32.99,-281.22C36.2,-311.6 49.21,-393.29 98,-433.5 167.22,-490.54 420.43,-483.72 568.25,-474.28"/>
<polygon fill="#757575" stroke="#757575" points="568.52,-477.77 578.27,-473.62 568.06,-470.78 568.52,-477.77"/>
</g>
<!-- index.js&#45;&gt;automator/automations&#45;manager.js -->
<g id="edge46" class="edge">
<title>index.js&#45;&gt;automator/automations&#45;manager.js</title>
<path fill="none" stroke="#757575" d="M46.11,-257.63C58.78,-247.76 78.37,-234.41 98,-228.5 260.59,-179.52 460.56,-187.71 578.03,-199"/>
<polygon fill="#757575" stroke="#757575" points="577.79,-202.49 588.08,-199.99 578.48,-195.52 577.79,-202.49"/>
</g>
<!-- index.js&#45;&gt;automator/automator.js -->
<g id="edge47" class="edge">
<title>index.js&#45;&gt;automator/automator.js</title>
<path fill="none" stroke="#757575" d="M39.27,-281.26C50.1,-297.86 72.02,-328.08 98,-345.5 104.12,-349.61 110.95,-353.12 117.95,-356.11"/>
<polygon fill="#757575" stroke="#757575" points="116.95,-359.48 127.54,-359.87 119.51,-352.96 116.95,-359.48"/>
</g>
<!-- index.js&#45;&gt;notifications.js -->
<g id="edge52" class="edge">
<title>index.js&#45;&gt;notifications.js</title>
<path fill="none" stroke="#757575" d="M34.66,-281.23C40.95,-306.11 59.23,-364.23 98,-392.5 171.93,-446.4 281.47,-454.24 348.74,-453.17"/>
<polygon fill="#757575" stroke="#757575" points="348.84,-456.67 358.76,-452.94 348.68,-449.67 348.84,-456.67"/>
</g>
<!-- index.js&#45;&gt;scenes/scenes&#45;manager.js -->
<g id="edge53" class="edge">
<title>index.js&#45;&gt;scenes/scenes&#45;manager.js</title>
<path fill="none" stroke="#757575" d="M45.61,-281.1C58.27,-291.13 78.12,-305.01 98,-311.5 166.71,-333.93 248.42,-338.38 310.76,-337.51"/>
<polygon fill="#757575" stroke="#757575" points="311.06,-341.01 320.99,-337.32 310.93,-334.01 311.06,-341.01"/>
</g>
<!-- index.js&#45;&gt;client&#45;api.js -->
<g id="edge48" class="edge">
<title>index.js&#45;&gt;client&#45;api.js</title>
<path fill="none" stroke="#757575" d="M62.33,-273.95C80.22,-276.58 103.34,-279.98 123.97,-283.01"/>
<polygon fill="#757575" stroke="#757575" points="123.46,-286.47 133.87,-284.46 124.48,-279.54 123.46,-286.47"/>
</g>
<!-- index.js&#45;&gt;device&#45;relay.js -->
<g id="edge49" class="edge">
<title>index.js&#45;&gt;device&#45;relay.js</title>
<path fill="none" stroke="#757575" d="M62.33,-265.26C77.61,-263.12 96.71,-260.45 114.82,-257.92"/>
<polygon fill="#757575" stroke="#757575" points="115.32,-261.38 124.74,-256.53 114.35,-254.45 115.32,-261.38"/>
</g>
<!-- index.js&#45;&gt;http&#45;server.js -->
<g id="edge51" class="edge">
<title>index.js&#45;&gt;http&#45;server.js</title>
<path fill="none" stroke="#757575" d="M33.84,-257.89C38.85,-229.96 55.39,-158.49 98,-119.5 104.21,-113.82 111.71,-109.37 119.56,-105.9"/>
<polygon fill="#757575" stroke="#757575" points="120.84,-109.15 128.87,-102.24 118.28,-102.63 120.84,-109.15"/>
</g>
<!-- stream&#45;relay.js -->
<g id="node33" class="node">
<title>stream&#45;relay.js</title>
<path fill="none" stroke="#cfffac" d="M220.83,-64C220.83,-64 131.17,-64 131.17,-64 127.33,-64 123.5,-60.17 123.5,-56.33 123.5,-56.33 123.5,-48.67 123.5,-48.67 123.5,-44.83 127.33,-41 131.17,-41 131.17,-41 220.83,-41 220.83,-41 224.67,-41 228.5,-44.83 228.5,-48.67 228.5,-48.67 228.5,-56.33 228.5,-56.33 228.5,-60.17 224.67,-64 220.83,-64"/>
<text text-anchor="middle" x="176" y="-48.8" font-family="Arial" font-size="14.00" fill="#cfffac">stream&#45;relay.js</text>
</g>
<!-- index.js&#45;&gt;stream&#45;relay.js -->
<g id="edge54" class="edge">
<title>index.js&#45;&gt;stream&#45;relay.js</title>
<path fill="none" stroke="#757575" d="M32.26,-257.71C33.69,-223.64 42.62,-124.18 98,-72.5 102.64,-68.17 108.09,-64.75 113.92,-62.06"/>
<polygon fill="#757575" stroke="#757575" points="115.28,-65.28 123.32,-58.39 112.73,-58.76 115.28,-65.28"/>
</g>
<!-- utilities&#45;server.js -->
<g id="node34" class="node">
<title>utilities&#45;server.js</title>
<path fill="none" stroke="#cfffac" d="M224.83,-23C224.83,-23 127.17,-23 127.17,-23 123.33,-23 119.5,-19.17 119.5,-15.33 119.5,-15.33 119.5,-7.67 119.5,-7.67 119.5,-3.83 123.33,0 127.17,0 127.17,0 224.83,0 224.83,0 228.67,0 232.5,-3.83 232.5,-7.67 232.5,-7.67 232.5,-15.33 232.5,-15.33 232.5,-19.17 228.67,-23 224.83,-23"/>
<text text-anchor="middle" x="176" y="-7.8" font-family="Arial" font-size="14.00" fill="#cfffac">utilities&#45;server.js</text>
</g>
<!-- index.js&#45;&gt;utilities&#45;server.js -->
<g id="edge55" class="edge">
<title>index.js&#45;&gt;utilities&#45;server.js</title>
<path fill="none" stroke="#757575" d="M31.47,-257.85C30.41,-219.5 32.43,-96 98,-31.5 101.57,-27.99 105.66,-25.08 110.07,-22.66"/>
<polygon fill="#757575" stroke="#757575" points="111.85,-25.69 119.49,-18.35 108.94,-19.33 111.85,-25.69"/>
</g>
<!-- website.js -->
<g id="node35" class="node">
<title>website.js</title>
<path fill="none" stroke="#c6c5fe" d="M439.83,-541C439.83,-541 379.17,-541 379.17,-541 375.33,-541 371.5,-537.17 371.5,-533.33 371.5,-533.33 371.5,-525.67 371.5,-525.67 371.5,-521.83 375.33,-518 379.17,-518 379.17,-518 439.83,-518 439.83,-518 443.67,-518 447.5,-521.83 447.5,-525.67 447.5,-525.67 447.5,-533.33 447.5,-533.33 447.5,-537.17 443.67,-541 439.83,-541"/>
<text text-anchor="middle" x="409.5" y="-525.8" font-family="Arial" font-size="14.00" fill="#c6c5fe">website.js</text>
</g>
<!-- index.js&#45;&gt;website.js -->
<g id="edge56" class="edge">
<title>index.js&#45;&gt;website.js</title>
<path fill="none" stroke="#757575" d="M33.54,-281.2C39.5,-324.44 62.43,-474.16 98,-503.5 172.72,-565.13 294.82,-553.27 361.46,-540.57"/>
<polygon fill="#757575" stroke="#757575" points="362.15,-544 371.28,-538.62 360.78,-537.14 362.15,-544"/>
</g>
<!-- website.js&#45;&gt;../webpack.config.js -->
<g id="edge99" class="edge">
<title>website.js&#45;&gt;../webpack.config.js</title>
<path fill="none" stroke="#757575" d="M447.63,-526.3C487.17,-522.9 550.88,-517.41 601.2,-513.07"/>
<polygon fill="#757575" stroke="#757575" points="601.74,-516.54 611.4,-512.19 601.14,-509.56 601.74,-516.54"/>
</g>
<!-- website.js&#45;&gt;devices/devices&#45;manager.js -->
<g id="edge101" class="edge">
<title>website.js&#45;&gt;devices/devices&#45;manager.js</title>
<path fill="none" stroke="#757575" d="M447.56,-534.08C516.32,-541.54 667.93,-553.05 792,-527.5 907.93,-503.62 1033.91,-437.41 1089.01,-406.19"/>
<polygon fill="#757575" stroke="#757575" points="1090.9,-409.14 1097.85,-401.14 1087.43,-403.07 1090.9,-409.14"/>
</g>
<!-- website.js&#45;&gt;accounts/accounts&#45;manager.js -->
<g id="edge100" class="edge">
<title>website.js&#45;&gt;accounts/accounts&#45;manager.js</title>
<path fill="none" stroke="#757575" d="M447.65,-523.57C471.3,-519.25 502.39,-512.57 529,-503.5 545.75,-497.79 548.16,-491.95 565,-486.5 573.31,-483.81 582.08,-481.43 590.91,-479.32"/>
<polygon fill="#757575" stroke="#757575" points="591.91,-482.69 600.89,-477.06 590.36,-475.86 591.91,-482.69"/>
</g>
<!-- services/bill&#45;acceptor&#45;service.js&#45;&gt;services/service.js -->
<g id="edge61" class="edge">
<title>services/bill&#45;acceptor&#45;service.js&#45;&gt;services/service.js</title>
<path fill="none" stroke="#757575" d="M1990.68,-613.17C2022.62,-616.7 2057.31,-623.82 2087,-637.5 2178.51,-679.68 2258.89,-773.64 2291.06,-814.68"/>
<polygon fill="#757575" stroke="#757575" points="2288.47,-817.04 2297.35,-822.82 2294.01,-812.76 2288.47,-817.04"/>
</g>
<!-- services/service.js&#45;&gt;devices/device&#45;settings.js -->
<g id="edge77" class="edge">
<title>services/service.js&#45;&gt;devices/device&#45;settings.js</title>
<path fill="none" stroke="#757575" d="M2325.6,-822.71C2376.66,-788.5 2525,-689.11 2585.18,-648.8"/>
<polygon fill="#757575" stroke="#757575" points="2587.37,-651.54 2593.73,-643.07 2583.47,-645.73 2587.37,-651.54"/>
</g>
<!-- services/button&#45;service.js&#45;&gt;services/service.js -->
<g id="edge62" class="edge">
<title>services/button&#45;service.js&#45;&gt;services/service.js</title>
<path fill="none" stroke="#757575" d="M1973.33,-566.3C2009.94,-567.68 2052.38,-573.84 2087,-591.5 2189.47,-643.78 2266.88,-765.45 2294.75,-813.98"/>
<polygon fill="#757575" stroke="#757575" points="2291.83,-815.93 2299.79,-822.92 2297.92,-812.49 2291.83,-815.93"/>
</g>
<!-- services/camera&#45;service.js&#45;&gt;services/service.js -->
<g id="edge63" class="edge">
<title>services/camera&#45;service.js&#45;&gt;services/service.js</title>
<path fill="none" stroke="#757575" d="M1977.41,-524.2C2013.34,-525.61 2054.13,-532.11 2087,-550.5 2199.05,-613.18 2272.68,-759.15 2297.09,-813.56"/>
<polygon fill="#757575" stroke="#757575" points="2293.96,-815.15 2301.19,-822.9 2300.37,-812.33 2293.96,-815.15"/>
</g>
<!-- services/contact&#45;sensor&#45;service.js&#45;&gt;services/service.js -->
<g id="edge64" class="edge">
<title>services/contact&#45;sensor&#45;service.js&#45;&gt;services/service.js</title>
<path fill="none" stroke="#757575" d="M1998.65,-483.49C2028.98,-486.36 2060.78,-493.71 2087,-509.5 2209.07,-583.01 2277.98,-753.75 2299.01,-813.44"/>
<polygon fill="#757575" stroke="#757575" points="2295.72,-814.63 2302.28,-822.95 2302.34,-812.35 2295.72,-814.63"/>
</g>
<!-- services/dimmer&#45;service.js&#45;&gt;services/service.js -->
<g id="edge65" class="edge">
<title>services/dimmer&#45;service.js&#45;&gt;services/service.js</title>
<path fill="none" stroke="#757575" d="M1977.56,-1232.29C2013.91,-1231.48 2054.99,-1224.96 2087,-1204.5 2220.18,-1119.37 2282.87,-921.93 2300.57,-856.21"/>
<polygon fill="#757575" stroke="#757575" points="2304.05,-856.74 2303.19,-846.18 2297.28,-854.97 2304.05,-856.74"/>
</g>
<!-- services/event&#45;mock&#45;service.js&#45;&gt;services/service.js -->
<g id="edge66" class="edge">
<title>services/event&#45;mock&#45;service.js&#45;&gt;services/service.js</title>
<path fill="none" stroke="#757575" d="M1989.52,-1189.92C2022.51,-1187.89 2058.14,-1180.89 2087,-1163.5 2210.08,-1089.33 2278.35,-916.33 2299.11,-855.84"/>
<polygon fill="#757575" stroke="#757575" points="2302.48,-856.8 2302.34,-846.21 2295.85,-854.58 2302.48,-856.8"/>
</g>
<!-- services/game&#45;machine&#45;service.js&#45;&gt;services/service.js -->
<g id="edge67" class="edge">
<title>services/game&#45;machine&#45;service.js&#45;&gt;services/service.js</title>
<path fill="none" stroke="#757575" d="M1999.59,-1147.03C2029.44,-1144.2 2060.76,-1137.21 2087,-1122.5 2199.99,-1059.16 2273.05,-911 2297.19,-855.76"/>
<polygon fill="#757575" stroke="#757575" points="2300.53,-856.85 2301.25,-846.28 2294.09,-854.1 2300.53,-856.85"/>
</g>
<!-- services/gateway&#45;service.js&#45;&gt;services/service.js -->
<g id="edge68" class="edge">
<title>services/gateway&#45;service.js&#45;&gt;services/service.js</title>
<path fill="none" stroke="#757575" d="M1979.74,-1106.08C2014.84,-1104.45 2054.41,-1098.19 2087,-1081.5 2190.56,-1028.47 2267.59,-904.21 2295.05,-855.05"/>
<polygon fill="#757575" stroke="#757575" points="2298.27,-856.46 2300.01,-846 2292.13,-853.09 2298.27,-856.46"/>
</g>
<!-- services/global&#45;alarm&#45;service.js&#45;&gt;services/service.js -->
<g id="edge69" class="edge">
<title>services/global&#45;alarm&#45;service.js&#45;&gt;services/service.js</title>
<path fill="none" stroke="#757575" d="M1992.01,-1062.68C2023.6,-1060.1 2057.76,-1053.84 2087,-1040.5 2181.44,-997.42 2261.3,-896.97 2292.25,-854.27"/>
<polygon fill="#757575" stroke="#757575" points="2295.14,-856.25 2298.1,-846.08 2289.44,-852.18 2295.14,-856.25"/>
</g>
<!-- services/grow&#45;pod&#45;service.js&#45;&gt;services/service.js -->
<g id="edge70" class="edge">
<title>services/grow&#45;pod&#45;service.js&#45;&gt;services/service.js</title>
<path fill="none" stroke="#757575" d="M1982.66,-1020.38C2016.45,-1018.07 2054.35,-1012.29 2087,-999.5 2172.3,-966.08 2253.11,-889.66 2287.98,-853.78"/>
<polygon fill="#757575" stroke="#757575" points="2290.69,-856.01 2295.09,-846.37 2285.64,-851.17 2290.69,-856.01"/>
</g>
<!-- services/light&#45;service.js&#45;&gt;services/service.js -->
<g id="edge71" class="edge">
<title>services/light&#45;service.js&#45;&gt;services/service.js</title>
<path fill="none" stroke="#757575" d="M1966.8,-978.03C2003.85,-975.97 2048.51,-970.75 2087,-958.5 2163.89,-934.02 2243.83,-880.32 2282.39,-852.3"/>
<polygon fill="#757575" stroke="#757575" points="2284.86,-854.83 2290.84,-846.09 2280.71,-849.19 2284.86,-854.83"/>
</g>
<!-- services/lock&#45;service.js&#45;&gt;services/service.js -->
<g id="edge72" class="edge">
<title>services/lock&#45;service.js&#45;&gt;services/service.js</title>
<path fill="none" stroke="#757575" d="M1966.54,-934.38C2003.34,-931.71 2047.85,-926.74 2087,-917.5 2154.92,-901.47 2230.2,-869.63 2272.45,-850.38"/>
<polygon fill="#757575" stroke="#757575" points="2274.08,-853.48 2281.7,-846.13 2271.15,-847.12 2274.08,-853.48"/>
</g>
<!-- services/media&#45;service.js&#45;&gt;services/service.js -->
<g id="edge73" class="edge">
<title>services/media&#45;service.js&#45;&gt;services/service.js</title>
<path fill="none" stroke="#757575" d="M1973.11,-889.7C2008.33,-886.4 2049.75,-881.95 2087,-876.5 2139.95,-868.75 2199.57,-857.12 2243.22,-848.07"/>
<polygon fill="#757575" stroke="#757575" points="2244.04,-851.47 2253.12,-846 2242.61,-844.62 2244.04,-851.47"/>
</g>
<!-- services/microphone&#45;service.js&#45;&gt;services/service.js -->
<g id="edge74" class="edge">
<title>services/microphone&#45;service.js&#45;&gt;services/service.js</title>
<path fill="none" stroke="#757575" d="M1990.17,-850.44C2065.29,-846.65 2166.35,-841.55 2233.71,-838.15"/>
<polygon fill="#757575" stroke="#757575" points="2234,-841.64 2243.81,-837.64 2233.65,-834.65 2234,-841.64"/>
</g>
<!-- services/motion&#45;service.js&#45;&gt;services/service.js -->
<g id="edge75" class="edge">
<title>services/motion&#45;service.js&#45;&gt;services/service.js</title>
<path fill="none" stroke="#757575" d="M1975.19,-818.6C2051.31,-822.26 2161.63,-827.56 2233.59,-831.02"/>
<polygon fill="#757575" stroke="#757575" points="2233.76,-834.53 2243.92,-831.52 2234.1,-827.54 2233.76,-834.53"/>
</g>
<!-- services/scale&#45;service.js&#45;&gt;services/service.js -->
<g id="edge76" class="edge">
<title>services/scale&#45;service.js&#45;&gt;services/service.js</title>
<path fill="none" stroke="#757575" d="M1970.2,-780.68C2006.02,-784.24 2048.7,-788.97 2087,-794.5 2138.46,-801.93 2196.31,-812.6 2239.62,-821.05"/>
<polygon fill="#757575" stroke="#757575" points="2238.98,-824.49 2249.47,-822.98 2240.33,-817.62 2238.98,-824.49"/>
</g>
<!-- services/siren&#45;service.js&#45;&gt;services/service.js -->
<g id="edge97" class="edge">
<title>services/siren&#45;service.js&#45;&gt;services/service.js</title>
<path fill="none" stroke="#757575" d="M1969.36,-736.46C2005.58,-739.41 2048.82,-744.55 2087,-753.5 2154.37,-769.29 2229.27,-800.04 2271.7,-818.77"/>
<polygon fill="#757575" stroke="#757575" points="2270.45,-822.05 2281.01,-822.92 2273.3,-815.65 2270.45,-822.05"/>
</g>
<!-- services/thermostat&#45;service.js&#45;&gt;services/service.js -->
<g id="edge98" class="edge">
<title>services/thermostat&#45;service.js&#45;&gt;services/service.js</title>
<path fill="none" stroke="#757575" d="M1986.53,-694.04C2019.03,-696.92 2055.12,-702.38 2087,-712.5 2163.43,-736.75 2243.27,-789.28 2282.03,-816.83"/>
<polygon fill="#757575" stroke="#757575" points="2280.38,-819.95 2290.54,-822.94 2284.47,-814.26 2280.38,-819.95"/>
</g>
</g>
</svg>
