<?xml version="1.0" encoding="UTF-8" standalone="no"?>
<!DOCTYPE svg PUBLIC "-//W3C//DTD SVG 1.1//EN"
 "http://www.w3.org/Graphics/SVG/1.1/DTD/svg11.dtd">
<!-- Generated by graphviz version 2.40.1 (20161225.0304)
 -->
<!-- Title: G Pages: 1 -->
<svg width="2477pt" height="936pt"
 viewBox="0.00 0.00 2477.20 936.45" xmlns="http://www.w3.org/2000/svg" xmlns:xlink="http://www.w3.org/1999/xlink">
<g id="graph0" class="graph" transform="scale(1 1) rotate(0) translate(21.6 914.8453)">
<title>G</title>
<polygon fill="#111111" stroke="transparent" points="-21.6,21.6 -21.6,-914.8453 2455.6,-914.8453 2455.6,21.6 -21.6,21.6"/>
<!-- ../webpack.config.js -->
<g id="node1" class="node">
<title>../webpack.config.js</title>
<path fill="none" stroke="#cfffac" d="M494.8333,-798C494.8333,-798 367.1667,-798 367.1667,-798 363.3333,-798 359.5,-794.1667 359.5,-790.3333 359.5,-790.3333 359.5,-782.6667 359.5,-782.6667 359.5,-778.8333 363.3333,-775 367.1667,-775 367.1667,-775 494.8333,-775 494.8333,-775 498.6667,-775 502.5,-778.8333 502.5,-782.6667 502.5,-782.6667 502.5,-790.3333 502.5,-790.3333 502.5,-794.1667 498.6667,-798 494.8333,-798"/>
<text text-anchor="middle" x="431" y="-782.8" font-family="Arial" font-size="14.00" fill="#cfffac">../webpack.config.js</text>
</g>
<!-- accounts/account.js -->
<g id="node2" class="node">
<title>accounts/account.js</title>
<path fill="none" stroke="#c6c5fe" d="M1281.3333,-757C1281.3333,-757 1150.6667,-757 1150.6667,-757 1146.8333,-757 1143,-753.1667 1143,-749.3333 1143,-749.3333 1143,-741.6667 1143,-741.6667 1143,-737.8333 1146.8333,-734 1150.6667,-734 1150.6667,-734 1281.3333,-734 1281.3333,-734 1285.1667,-734 1289,-737.8333 1289,-741.6667 1289,-741.6667 1289,-749.3333 1289,-749.3333 1289,-753.1667 1285.1667,-757 1281.3333,-757"/>
<text text-anchor="middle" x="1216" y="-741.8" font-family="Arial" font-size="14.00" fill="#c6c5fe">accounts/account.js</text>
</g>
<!-- locations/rooms&#45;manager.js -->
<g id="node3" class="node">
<title>locations/rooms&#45;manager.js</title>
<path fill="none" stroke="#cfffac" d="M1675.8333,-757C1675.8333,-757 1497.1667,-757 1497.1667,-757 1493.3333,-757 1489.5,-753.1667 1489.5,-749.3333 1489.5,-749.3333 1489.5,-741.6667 1489.5,-741.6667 1489.5,-737.8333 1493.3333,-734 1497.1667,-734 1497.1667,-734 1675.8333,-734 1675.8333,-734 1679.6667,-734 1683.5,-737.8333 1683.5,-741.6667 1683.5,-741.6667 1683.5,-749.3333 1683.5,-749.3333 1683.5,-753.1667 1679.6667,-757 1675.8333,-757"/>
<text text-anchor="middle" x="1586.5" y="-741.8" font-family="Arial" font-size="14.00" fill="#cfffac">locations/rooms&#45;manager.js</text>
</g>
<!-- accounts/account.js&#45;&gt;locations/rooms&#45;manager.js -->
<g id="edge1" class="edge">
<title>accounts/account.js&#45;&gt;locations/rooms&#45;manager.js</title>
<path fill="none" stroke="#757575" d="M1289.1989,-745.5C1343.4358,-745.5 1418.1988,-745.5 1479.1822,-745.5"/>
<polygon fill="#757575" stroke="#757575" points="1479.2331,-749.0001 1489.233,-745.5 1479.233,-742.0001 1479.2331,-749.0001"/>
</g>
<!-- accounts/accounts&#45;manager.js -->
<g id="node4" class="node">
<title>accounts/accounts&#45;manager.js</title>
<path fill="none" stroke="#c6c5fe" d="M1036.3333,-757C1036.3333,-757 836.6667,-757 836.6667,-757 832.8333,-757 829,-753.1667 829,-749.3333 829,-749.3333 829,-741.6667 829,-741.6667 829,-737.8333 832.8333,-734 836.6667,-734 836.6667,-734 1036.3333,-734 1036.3333,-734 1040.1667,-734 1044,-737.8333 1044,-741.6667 1044,-741.6667 1044,-749.3333 1044,-749.3333 1044,-753.1667 1040.1667,-757 1036.3333,-757"/>
<text text-anchor="middle" x="936.5" y="-741.8" font-family="Arial" font-size="14.00" fill="#c6c5fe">accounts/accounts&#45;manager.js</text>
</g>
<!-- accounts/accounts&#45;manager.js&#45;&gt;accounts/account.js -->
<g id="edge2" class="edge">
<title>accounts/accounts&#45;manager.js&#45;&gt;accounts/account.js</title>
<path fill="none" stroke="#757575" d="M1044.1622,-745.5C1073.609,-745.5 1105.0651,-745.5 1132.9088,-745.5"/>
<polygon fill="#757575" stroke="#757575" points="1132.9932,-749.0001 1142.9932,-745.5 1132.9931,-742.0001 1132.9932,-749.0001"/>
</g>
<!-- automator/automation.js -->
<g id="node5" class="node">
<title>automator/automation.js</title>
<path fill="none" stroke="#cfffac" d="M509.3333,-595C509.3333,-595 352.6667,-595 352.6667,-595 348.8333,-595 345,-591.1667 345,-587.3333 345,-587.3333 345,-579.6667 345,-579.6667 345,-575.8333 348.8333,-572 352.6667,-572 352.6667,-572 509.3333,-572 509.3333,-572 513.1667,-572 517,-575.8333 517,-579.6667 517,-579.6667 517,-587.3333 517,-587.3333 517,-591.1667 513.1667,-595 509.3333,-595"/>
<text text-anchor="middle" x="431" y="-579.8" font-family="Arial" font-size="14.00" fill="#cfffac">automator/automation.js</text>
</g>
<!-- automator/automator.js -->
<g id="node6" class="node">
<title>automator/automator.js</title>
<path fill="none" stroke="#c6c5fe" d="M258.3333,-639C258.3333,-639 109.6667,-639 109.6667,-639 105.8333,-639 102,-635.1667 102,-631.3333 102,-631.3333 102,-623.6667 102,-623.6667 102,-619.8333 105.8333,-616 109.6667,-616 109.6667,-616 258.3333,-616 258.3333,-616 262.1667,-616 266,-619.8333 266,-623.6667 266,-623.6667 266,-631.3333 266,-631.3333 266,-635.1667 262.1667,-639 258.3333,-639"/>
<text text-anchor="middle" x="184" y="-623.8" font-family="Arial" font-size="14.00" fill="#c6c5fe">automator/automator.js</text>
</g>
<!-- automator/automator.js&#45;&gt;automator/automation.js -->
<g id="edge3" class="edge">
<title>automator/automator.js&#45;&gt;automator/automation.js</title>
<path fill="none" stroke="#757575" d="M248.5737,-615.997C281.6179,-610.1106 322.0135,-602.9146 356.3849,-596.7918"/>
<polygon fill="#757575" stroke="#757575" points="357.1435,-600.2118 366.3746,-595.0122 355.9158,-593.3203 357.1435,-600.2118"/>
</g>
<!-- automator/notifications.js -->
<g id="node7" class="node">
<title>automator/notifications.js</title>
<path fill="none" stroke="#c6c5fe" d="M511.3333,-716C511.3333,-716 350.6667,-716 350.6667,-716 346.8333,-716 343,-712.1667 343,-708.3333 343,-708.3333 343,-700.6667 343,-700.6667 343,-696.8333 346.8333,-693 350.6667,-693 350.6667,-693 511.3333,-693 511.3333,-693 515.1667,-693 519,-696.8333 519,-700.6667 519,-700.6667 519,-708.3333 519,-708.3333 519,-712.1667 515.1667,-716 511.3333,-716"/>
<text text-anchor="middle" x="431" y="-700.8" font-family="Arial" font-size="14.00" fill="#c6c5fe">automator/notifications.js</text>
</g>
<!-- automator/automator.js&#45;&gt;automator/notifications.js -->
<g id="edge4" class="edge">
<title>automator/automator.js&#45;&gt;automator/notifications.js</title>
<path fill="none" stroke="#757575" d="M203.3075,-639.0468C226.0927,-652.1388 265.507,-673.1352 302,-684.5 311.8387,-687.564 322.2519,-690.1705 332.7252,-692.3854"/>
<polygon fill="#757575" stroke="#757575" points="332.2763,-695.8648 342.7681,-694.3911 333.6473,-689.0004 332.2763,-695.8648"/>
</g>
<!-- devices/devices&#45;manager.js -->
<g id="node8" class="node">
<title>devices/devices&#45;manager.js</title>
<path fill="none" stroke="#c6c5fe" d="M785.3333,-635C785.3333,-635 603.6667,-635 603.6667,-635 599.8333,-635 596,-631.1667 596,-627.3333 596,-627.3333 596,-619.6667 596,-619.6667 596,-615.8333 599.8333,-612 603.6667,-612 603.6667,-612 785.3333,-612 785.3333,-612 789.1667,-612 793,-615.8333 793,-619.6667 793,-619.6667 793,-627.3333 793,-627.3333 793,-631.1667 789.1667,-635 785.3333,-635"/>
<text text-anchor="middle" x="694.5" y="-619.8" font-family="Arial" font-size="14.00" fill="#c6c5fe">devices/devices&#45;manager.js</text>
</g>
<!-- automator/automator.js&#45;&gt;devices/devices&#45;manager.js -->
<g id="edge5" class="edge">
<title>automator/automator.js&#45;&gt;devices/devices&#45;manager.js</title>
<path fill="none" stroke="#757575" d="M266.0207,-626.8573C352.7212,-626.178 489.9093,-625.1031 585.622,-624.3531"/>
<polygon fill="#757575" stroke="#757575" points="585.6515,-627.8531 595.6237,-624.2747 585.5966,-620.8533 585.6515,-627.8531"/>
</g>
<!-- scenes/scenes&#45;manager.js -->
<g id="node9" class="node">
<title>scenes/scenes&#45;manager.js</title>
<path fill="none" stroke="#c6c5fe" d="M518.8333,-675C518.8333,-675 343.1667,-675 343.1667,-675 339.3333,-675 335.5,-671.1667 335.5,-667.3333 335.5,-667.3333 335.5,-659.6667 335.5,-659.6667 335.5,-655.8333 339.3333,-652 343.1667,-652 343.1667,-652 518.8333,-652 518.8333,-652 522.6667,-652 526.5,-655.8333 526.5,-659.6667 526.5,-659.6667 526.5,-667.3333 526.5,-667.3333 526.5,-671.1667 522.6667,-675 518.8333,-675"/>
<text text-anchor="middle" x="431" y="-659.8" font-family="Arial" font-size="14.00" fill="#c6c5fe">scenes/scenes&#45;manager.js</text>
</g>
<!-- automator/automator.js&#45;&gt;scenes/scenes&#45;manager.js -->
<g id="edge6" class="edge">
<title>automator/automator.js&#45;&gt;scenes/scenes&#45;manager.js</title>
<path fill="none" stroke="#757575" d="M263.1715,-639.0392C288.2102,-642.6885 316.0518,-646.7464 341.746,-650.4913"/>
<polygon fill="#757575" stroke="#757575" points="341.4528,-653.9855 351.8531,-651.9644 342.4624,-647.0587 341.4528,-653.9855"/>
</g>
<!-- automator/notifications.js&#45;&gt;accounts/accounts&#45;manager.js -->
<g id="edge7" class="edge">
<title>automator/notifications.js&#45;&gt;accounts/accounts&#45;manager.js</title>
<path fill="none" stroke="#757575" d="M519.0514,-711.6417C602.0728,-718.3753 727.0864,-728.5149 818.6682,-735.9429"/>
<polygon fill="#757575" stroke="#757575" points="818.5725,-739.4466 828.8227,-736.7665 819.1385,-732.4695 818.5725,-739.4466"/>
</g>
<!-- devices/devices&#45;manager.js&#45;&gt;accounts/accounts&#45;manager.js -->
<g id="edge18" class="edge">
<title>devices/devices&#45;manager.js&#45;&gt;accounts/accounts&#45;manager.js</title>
<path fill="none" stroke="#757575" d="M765.5381,-635.034C774.9617,-637.6033 784.3469,-640.7219 793,-644.5 841.1194,-665.51 889.488,-704.0083 915.9605,-726.9248"/>
<polygon fill="#757575" stroke="#757575" points="913.9355,-729.8047 923.758,-733.7758 918.5558,-724.5461 913.9355,-729.8047"/>
</g>
<!-- devices/device.js -->
<g id="node15" class="node">
<title>devices/device.js</title>
<path fill="none" stroke="#c6c5fe" d="M992.8333,-635C992.8333,-635 880.1667,-635 880.1667,-635 876.3333,-635 872.5,-631.1667 872.5,-627.3333 872.5,-627.3333 872.5,-619.6667 872.5,-619.6667 872.5,-615.8333 876.3333,-612 880.1667,-612 880.1667,-612 992.8333,-612 992.8333,-612 996.6667,-612 1000.5,-615.8333 1000.5,-619.6667 1000.5,-619.6667 1000.5,-627.3333 1000.5,-627.3333 1000.5,-631.1667 996.6667,-635 992.8333,-635"/>
<text text-anchor="middle" x="936.5" y="-619.8" font-family="Arial" font-size="14.00" fill="#c6c5fe">devices/device.js</text>
</g>
<!-- devices/devices&#45;manager.js&#45;&gt;devices/device.js -->
<g id="edge19" class="edge">
<title>devices/devices&#45;manager.js&#45;&gt;devices/device.js</title>
<path fill="none" stroke="#757575" d="M793.2797,-623.5C816.2962,-623.5 840.4236,-623.5 862.1745,-623.5"/>
<polygon fill="#757575" stroke="#757575" points="862.316,-627.0001 872.316,-623.5 862.316,-620.0001 862.316,-627.0001"/>
</g>
<!-- scenes/scenes&#45;manager.js&#45;&gt;devices/devices&#45;manager.js -->
<g id="edge37" class="edge">
<title>scenes/scenes&#45;manager.js&#45;&gt;devices/devices&#45;manager.js</title>
<path fill="none" stroke="#757575" d="M506.8616,-651.984C538.6897,-647.1524 575.8595,-641.51 608.6818,-636.5274"/>
<polygon fill="#757575" stroke="#757575" points="609.3563,-639.9652 618.7177,-635.0039 608.3057,-633.0445 609.3563,-639.9652"/>
</g>
<!-- scenes/scene.js -->
<g id="node28" class="node">
<title>scenes/scene.js</title>
<path fill="none" stroke="#cfffac" d="M747.8333,-676C747.8333,-676 641.1667,-676 641.1667,-676 637.3333,-676 633.5,-672.1667 633.5,-668.3333 633.5,-668.3333 633.5,-660.6667 633.5,-660.6667 633.5,-656.8333 637.3333,-653 641.1667,-653 641.1667,-653 747.8333,-653 747.8333,-653 751.6667,-653 755.5,-656.8333 755.5,-660.6667 755.5,-660.6667 755.5,-668.3333 755.5,-668.3333 755.5,-672.1667 751.6667,-676 747.8333,-676"/>
<text text-anchor="middle" x="694.5" y="-660.8" font-family="Arial" font-size="14.00" fill="#cfffac">scenes/scene.js</text>
</g>
<!-- scenes/scenes&#45;manager.js&#45;&gt;scenes/scene.js -->
<g id="edge38" class="edge">
<title>scenes/scenes&#45;manager.js&#45;&gt;scenes/scene.js</title>
<path fill="none" stroke="#757575" d="M526.5021,-663.8624C558.3855,-663.9834 593.3401,-664.1161 623.0691,-664.2289"/>
<polygon fill="#757575" stroke="#757575" points="623.3399,-667.7299 633.3531,-664.2679 623.3665,-660.7299 623.3399,-667.7299"/>
</g>
<!-- client&#45;api.js -->
<g id="node10" class="node">
<title>client&#45;api.js</title>
<path fill="none" stroke="#c6c5fe" d="M220.8333,-757C220.8333,-757 147.1667,-757 147.1667,-757 143.3333,-757 139.5,-753.1667 139.5,-749.3333 139.5,-749.3333 139.5,-741.6667 139.5,-741.6667 139.5,-737.8333 143.3333,-734 147.1667,-734 147.1667,-734 220.8333,-734 220.8333,-734 224.6667,-734 228.5,-737.8333 228.5,-741.6667 228.5,-741.6667 228.5,-749.3333 228.5,-749.3333 228.5,-753.1667 224.6667,-757 220.8333,-757"/>
<text text-anchor="middle" x="184" y="-741.8" font-family="Arial" font-size="14.00" fill="#c6c5fe">client&#45;api.js</text>
</g>
<!-- client&#45;connection.js -->
<g id="node11" class="node">
<title>client&#45;connection.js</title>
<path fill="none" stroke="#c6c5fe" d="M493.3333,-757C493.3333,-757 368.6667,-757 368.6667,-757 364.8333,-757 361,-753.1667 361,-749.3333 361,-749.3333 361,-741.6667 361,-741.6667 361,-737.8333 364.8333,-734 368.6667,-734 368.6667,-734 493.3333,-734 493.3333,-734 497.1667,-734 501,-737.8333 501,-741.6667 501,-741.6667 501,-749.3333 501,-749.3333 501,-753.1667 497.1667,-757 493.3333,-757"/>
<text text-anchor="middle" x="431" y="-741.8" font-family="Arial" font-size="14.00" fill="#c6c5fe">client&#45;connection.js</text>
</g>
<!-- client&#45;api.js&#45;&gt;client&#45;connection.js -->
<g id="edge8" class="edge">
<title>client&#45;api.js&#45;&gt;client&#45;connection.js</title>
<path fill="none" stroke="#757575" d="M228.7298,-745.5C262.6922,-745.5 310.2946,-745.5 350.7885,-745.5"/>
<polygon fill="#757575" stroke="#757575" points="350.9178,-749.0001 360.9178,-745.5 350.9177,-742.0001 350.9178,-749.0001"/>
</g>
<!-- client&#45;connection.js&#45;&gt;accounts/accounts&#45;manager.js -->
<g id="edge9" class="edge">
<title>client&#45;connection.js&#45;&gt;accounts/accounts&#45;manager.js</title>
<path fill="none" stroke="#757575" d="M501.0221,-745.5C583.0482,-745.5 720.2342,-745.5 818.7246,-745.5"/>
<polygon fill="#757575" stroke="#757575" points="818.7315,-749.0001 828.7314,-745.5 818.7314,-742.0001 818.7315,-749.0001"/>
</g>
<!-- client&#45;connection.js&#45;&gt;devices/devices&#45;manager.js -->
<g id="edge10" class="edge">
<title>client&#45;connection.js&#45;&gt;devices/devices&#45;manager.js</title>
<path fill="none" stroke="#757575" d="M501.2725,-747.0367C521.8925,-744.3847 543.3518,-738.2401 560,-725.5 591.2858,-701.5584 565.3997,-669.3118 596,-644.5 598.0202,-642.8619 600.1383,-641.3433 602.3359,-639.9358"/>
<polygon fill="#757575" stroke="#757575" points="604.119,-642.9492 611.1686,-635.0401 600.7254,-636.8268 604.119,-642.9492"/>
</g>
<!-- device&#45;relay.js -->
<g id="node12" class="node">
<title>device&#45;relay.js</title>
<path fill="none" stroke="#c6c5fe" d="M230.8333,-598C230.8333,-598 137.1667,-598 137.1667,-598 133.3333,-598 129.5,-594.1667 129.5,-590.3333 129.5,-590.3333 129.5,-582.6667 129.5,-582.6667 129.5,-578.8333 133.3333,-575 137.1667,-575 137.1667,-575 230.8333,-575 230.8333,-575 234.6667,-575 238.5,-578.8333 238.5,-582.6667 238.5,-582.6667 238.5,-590.3333 238.5,-590.3333 238.5,-594.1667 234.6667,-598 230.8333,-598"/>
<text text-anchor="middle" x="184" y="-582.8" font-family="Arial" font-size="14.00" fill="#c6c5fe">device&#45;relay.js</text>
</g>
<!-- device&#45;relay.js&#45;&gt;devices/devices&#45;manager.js -->
<g id="edge12" class="edge">
<title>device&#45;relay.js&#45;&gt;devices/devices&#45;manager.js</title>
<path fill="none" stroke="#757575" d="M238.5169,-577.7218C248.127,-574.7579 257.6994,-570.7957 266,-565.5 287.301,-551.9101 279.167,-532.3201 302,-521.5 405.6208,-472.3963 451.3147,-484.9493 560,-521.5 608.8761,-537.9369 654.1052,-579.966 677.6104,-604.6414"/>
<polygon fill="#757575" stroke="#757575" points="675.0781,-607.0579 684.4557,-611.9887 680.1998,-602.2862 675.0781,-607.0579"/>
</g>
<!-- devices/device&#45;websocket&#45;wrapper.js -->
<g id="node13" class="node">
<title>devices/device&#45;websocket&#45;wrapper.js</title>
<path fill="none" stroke="#cfffac" d="M552.3333,-554C552.3333,-554 309.6667,-554 309.6667,-554 305.8333,-554 302,-550.1667 302,-546.3333 302,-546.3333 302,-538.6667 302,-538.6667 302,-534.8333 305.8333,-531 309.6667,-531 309.6667,-531 552.3333,-531 552.3333,-531 556.1667,-531 560,-534.8333 560,-538.6667 560,-538.6667 560,-546.3333 560,-546.3333 560,-550.1667 556.1667,-554 552.3333,-554"/>
<text text-anchor="middle" x="431" y="-538.8" font-family="Arial" font-size="14.00" fill="#cfffac">devices/device&#45;websocket&#45;wrapper.js</text>
</g>
<!-- device&#45;relay.js&#45;&gt;devices/device&#45;websocket&#45;wrapper.js -->
<g id="edge11" class="edge">
<title>device&#45;relay.js&#45;&gt;devices/device&#45;websocket&#45;wrapper.js</title>
<path fill="none" stroke="#757575" d="M237.9423,-574.9755C258.0141,-570.8332 281.0104,-566.2595 302,-562.5 315.1942,-560.1368 329.1773,-557.798 342.8806,-555.5984"/>
<polygon fill="#757575" stroke="#757575" points="343.4673,-559.0492 352.794,-554.0231 342.3686,-552.136 343.4673,-559.0492"/>
</g>
<!-- devices/device&#45;settings.js -->
<g id="node14" class="node">
<title>devices/device&#45;settings.js</title>
<path fill="none" stroke="#cfffac" d="M2426.3333,-512C2426.3333,-512 2259.6667,-512 2259.6667,-512 2255.8333,-512 2252,-508.1667 2252,-504.3333 2252,-504.3333 2252,-496.6667 2252,-496.6667 2252,-492.8333 2255.8333,-489 2259.6667,-489 2259.6667,-489 2426.3333,-489 2426.3333,-489 2430.1667,-489 2434,-492.8333 2434,-496.6667 2434,-496.6667 2434,-504.3333 2434,-504.3333 2434,-508.1667 2430.1667,-512 2426.3333,-512"/>
<text text-anchor="middle" x="2343" y="-496.8" font-family="Arial" font-size="14.00" fill="#cfffac">devices/device&#45;settings.js</text>
</g>
<!-- devices/device.js&#45;&gt;devices/device&#45;settings.js -->
<g id="edge13" class="edge">
<title>devices/device.js&#45;&gt;devices/device&#45;settings.js</title>
<path fill="none" stroke="#757575" d="M956.0788,-635.0461C982.9394,-650.1499 1033.2249,-675.8274 1080,-685.5 1198.3842,-709.9807 1231.1112,-685.6396 1352,-685.5 1736.9872,-685.0554 1870.1806,-792.6869 2216,-623.5 2265.5092,-599.2784 2308.0485,-548.5196 2329.037,-520.3689"/>
<polygon fill="#757575" stroke="#757575" points="2332.0128,-522.2282 2335.0756,-512.0857 2326.3564,-518.1045 2332.0128,-522.2282"/>
</g>
<!-- devices/drivers/generic/generic&#45;driver.js -->
<g id="node16" class="node">
<title>devices/drivers/generic/generic&#45;driver.js</title>
<path fill="none" stroke="#c6c5fe" d="M1344.3333,-594C1344.3333,-594 1087.6667,-594 1087.6667,-594 1083.8333,-594 1080,-590.1667 1080,-586.3333 1080,-586.3333 1080,-578.6667 1080,-578.6667 1080,-574.8333 1083.8333,-571 1087.6667,-571 1087.6667,-571 1344.3333,-571 1344.3333,-571 1348.1667,-571 1352,-574.8333 1352,-578.6667 1352,-578.6667 1352,-586.3333 1352,-586.3333 1352,-590.1667 1348.1667,-594 1344.3333,-594"/>
<text text-anchor="middle" x="1216" y="-578.8" font-family="Arial" font-size="14.00" fill="#c6c5fe">devices/drivers/generic/generic&#45;driver.js</text>
</g>
<!-- devices/device.js&#45;&gt;devices/drivers/generic/generic&#45;driver.js -->
<g id="edge14" class="edge">
<title>devices/device.js&#45;&gt;devices/drivers/generic/generic&#45;driver.js</title>
<path fill="none" stroke="#757575" d="M1000.6229,-614.0938C1038.218,-608.5789 1086.2624,-601.5313 1127.4312,-595.4922"/>
<polygon fill="#757575" stroke="#757575" points="1128.0785,-598.9348 1137.4646,-594.0204 1127.0625,-592.0089 1128.0785,-598.9348"/>
</g>
<!-- devices/drivers/liger&#45;driver.js -->
<g id="node17" class="node">
<title>devices/drivers/liger&#45;driver.js</title>
<path fill="none" stroke="#c6c5fe" d="M1307.8333,-635C1307.8333,-635 1124.1667,-635 1124.1667,-635 1120.3333,-635 1116.5,-631.1667 1116.5,-627.3333 1116.5,-627.3333 1116.5,-619.6667 1116.5,-619.6667 1116.5,-615.8333 1120.3333,-612 1124.1667,-612 1124.1667,-612 1307.8333,-612 1307.8333,-612 1311.6667,-612 1315.5,-615.8333 1315.5,-619.6667 1315.5,-619.6667 1315.5,-627.3333 1315.5,-627.3333 1315.5,-631.1667 1311.6667,-635 1307.8333,-635"/>
<text text-anchor="middle" x="1216" y="-619.8" font-family="Arial" font-size="14.00" fill="#c6c5fe">devices/drivers/liger&#45;driver.js</text>
</g>
<!-- devices/device.js&#45;&gt;devices/drivers/liger&#45;driver.js -->
<g id="edge15" class="edge">
<title>devices/device.js&#45;&gt;devices/drivers/liger&#45;driver.js</title>
<path fill="none" stroke="#757575" d="M1000.6229,-623.5C1031.9279,-623.5 1070.4781,-623.5 1106.2708,-623.5"/>
<polygon fill="#757575" stroke="#757575" points="1106.2848,-627.0001 1116.2847,-623.5 1106.2847,-620.0001 1106.2848,-627.0001"/>
</g>
<!-- devices/drivers/standard&#45;driver.js -->
<g id="node18" class="node">
<title>devices/drivers/standard&#45;driver.js</title>
<path fill="none" stroke="#c6c5fe" d="M1322.8333,-676C1322.8333,-676 1109.1667,-676 1109.1667,-676 1105.3333,-676 1101.5,-672.1667 1101.5,-668.3333 1101.5,-668.3333 1101.5,-660.6667 1101.5,-660.6667 1101.5,-656.8333 1105.3333,-653 1109.1667,-653 1109.1667,-653 1322.8333,-653 1322.8333,-653 1326.6667,-653 1330.5,-656.8333 1330.5,-660.6667 1330.5,-660.6667 1330.5,-668.3333 1330.5,-668.3333 1330.5,-672.1667 1326.6667,-676 1322.8333,-676"/>
<text text-anchor="middle" x="1216" y="-660.8" font-family="Arial" font-size="14.00" fill="#c6c5fe">devices/drivers/standard&#45;driver.js</text>
</g>
<!-- devices/device.js&#45;&gt;devices/drivers/standard&#45;driver.js -->
<g id="edge16" class="edge">
<title>devices/device.js&#45;&gt;devices/drivers/standard&#45;driver.js</title>
<path fill="none" stroke="#757575" d="M1000.6229,-632.9062C1038.218,-638.4211 1086.2624,-645.4687 1127.4312,-651.5078"/>
<polygon fill="#757575" stroke="#757575" points="1127.0625,-654.9911 1137.4646,-652.9796 1128.0785,-648.0652 1127.0625,-654.9911"/>
</g>
<!-- services/services&#45;manager.js -->
<g id="node19" class="node">
<title>services/services&#45;manager.js</title>
<path fill="none" stroke="#c6c5fe" d="M1310.3333,-308C1310.3333,-308 1121.6667,-308 1121.6667,-308 1117.8333,-308 1114,-304.1667 1114,-300.3333 1114,-300.3333 1114,-292.6667 1114,-292.6667 1114,-288.8333 1117.8333,-285 1121.6667,-285 1121.6667,-285 1310.3333,-285 1310.3333,-285 1314.1667,-285 1318,-288.8333 1318,-292.6667 1318,-292.6667 1318,-300.3333 1318,-300.3333 1318,-304.1667 1314.1667,-308 1310.3333,-308"/>
<text text-anchor="middle" x="1216" y="-292.8" font-family="Arial" font-size="14.00" fill="#c6c5fe">services/services&#45;manager.js</text>
</g>
<!-- devices/device.js&#45;&gt;services/services&#45;manager.js -->
<g id="edge17" class="edge">
<title>devices/device.js&#45;&gt;services/services&#45;manager.js</title>
<path fill="none" stroke="#757575" d="M946.4476,-611.8619C987.8709,-563.3988 1146.9428,-377.2932 1199.2332,-316.1163"/>
<polygon fill="#757575" stroke="#757575" points="1202.0427,-318.2161 1205.8796,-308.3404 1196.7216,-313.6679 1202.0427,-318.2161"/>
</g>
<!-- devices/drivers/device&#45;driver.js -->
<g id="node20" class="node">
<title>devices/drivers/device&#45;driver.js</title>
<path fill="none" stroke="#cfffac" d="M1686.3333,-675C1686.3333,-675 1486.6667,-675 1486.6667,-675 1482.8333,-675 1479,-671.1667 1479,-667.3333 1479,-667.3333 1479,-659.6667 1479,-659.6667 1479,-655.8333 1482.8333,-652 1486.6667,-652 1486.6667,-652 1686.3333,-652 1686.3333,-652 1690.1667,-652 1694,-655.8333 1694,-659.6667 1694,-659.6667 1694,-667.3333 1694,-667.3333 1694,-671.1667 1690.1667,-675 1686.3333,-675"/>
<text text-anchor="middle" x="1586.5" y="-659.8" font-family="Arial" font-size="14.00" fill="#cfffac">devices/drivers/device&#45;driver.js</text>
</g>
<!-- devices/drivers/generic/generic&#45;driver.js&#45;&gt;devices/drivers/device&#45;driver.js -->
<g id="edge20" class="edge">
<title>devices/drivers/generic/generic&#45;driver.js&#45;&gt;devices/drivers/device&#45;driver.js</title>
<path fill="none" stroke="#757575" d="M1330.015,-594.0082C1337.6572,-596.6191 1345.0645,-599.7507 1352,-603.5 1373.04,-614.874 1366.6672,-632.6852 1388,-643.5 1412.6252,-655.984 1441.1602,-662.6327 1468.7828,-665.8697"/>
<polygon fill="#757575" stroke="#757575" points="1468.6034,-669.3696 1478.9093,-666.9124 1469.3204,-662.4064 1468.6034,-669.3696"/>
</g>
<!-- devices/drivers/generic/service&#45;adapters/dimmer&#45;adapter.js -->
<g id="node21" class="node">
<title>devices/drivers/generic/service&#45;adapters/dimmer&#45;adapter.js</title>
<path fill="none" stroke="#c6c5fe" d="M1777.3333,-634C1777.3333,-634 1395.6667,-634 1395.6667,-634 1391.8333,-634 1388,-630.1667 1388,-626.3333 1388,-626.3333 1388,-618.6667 1388,-618.6667 1388,-614.8333 1391.8333,-611 1395.6667,-611 1395.6667,-611 1777.3333,-611 1777.3333,-611 1781.1667,-611 1785,-614.8333 1785,-618.6667 1785,-618.6667 1785,-626.3333 1785,-626.3333 1785,-630.1667 1781.1667,-634 1777.3333,-634"/>
<text text-anchor="middle" x="1586.5" y="-618.8" font-family="Arial" font-size="14.00" fill="#c6c5fe">devices/drivers/generic/service&#45;adapters/dimmer&#45;adapter.js</text>
</g>
<!-- devices/drivers/generic/generic&#45;driver.js&#45;&gt;devices/drivers/generic/service&#45;adapters/dimmer&#45;adapter.js -->
<g id="edge21" class="edge">
<title>devices/drivers/generic/generic&#45;driver.js&#45;&gt;devices/drivers/generic/service&#45;adapters/dimmer&#45;adapter.js</title>
<path fill="none" stroke="#757575" d="M1322.6669,-594.016C1368.7697,-598.9934 1422.8435,-604.8313 1469.9938,-609.9217"/>
<polygon fill="#757575" stroke="#757575" points="1469.6267,-613.4024 1479.9447,-610.9961 1470.3782,-606.4428 1469.6267,-613.4024"/>
</g>
<!-- devices/drivers/generic/service&#45;adapters/service&#45;adapter.js -->
<g id="node22" class="node">
<title>devices/drivers/generic/service&#45;adapters/service&#45;adapter.js</title>
<path fill="none" stroke="#cfffac" d="M2208.3333,-614C2208.3333,-614 1828.6667,-614 1828.6667,-614 1824.8333,-614 1821,-610.1667 1821,-606.3333 1821,-606.3333 1821,-598.6667 1821,-598.6667 1821,-594.8333 1824.8333,-591 1828.6667,-591 1828.6667,-591 2208.3333,-591 2208.3333,-591 2212.1667,-591 2216,-594.8333 2216,-598.6667 2216,-598.6667 2216,-606.3333 2216,-606.3333 2216,-610.1667 2212.1667,-614 2208.3333,-614"/>
<text text-anchor="middle" x="2018.5" y="-598.8" font-family="Arial" font-size="14.00" fill="#cfffac">devices/drivers/generic/service&#45;adapters/service&#45;adapter.js</text>
</g>
<!-- devices/drivers/generic/generic&#45;driver.js&#45;&gt;devices/drivers/generic/service&#45;adapters/service&#45;adapter.js -->
<g id="edge22" class="edge">
<title>devices/drivers/generic/generic&#45;driver.js&#45;&gt;devices/drivers/generic/service&#45;adapters/service&#45;adapter.js</title>
<path fill="none" stroke="#757575" d="M1352.1332,-585.8927C1477.6846,-589.0217 1665.9182,-593.7129 1810.3353,-597.3121"/>
<polygon fill="#757575" stroke="#757575" points="1810.572,-600.819 1820.6561,-597.5693 1810.7465,-593.8212 1810.572,-600.819"/>
</g>
<!-- devices/drivers/liger&#45;driver.js&#45;&gt;devices/drivers/device&#45;driver.js -->
<g id="edge24" class="edge">
<title>devices/drivers/liger&#45;driver.js&#45;&gt;devices/drivers/device&#45;driver.js</title>
<path fill="none" stroke="#757575" d="M1312.8493,-635.0253C1337.3608,-637.8697 1363.6422,-640.8569 1388,-643.5 1414.1061,-646.3328 1442.1589,-649.2418 1468.7159,-651.9335"/>
<polygon fill="#757575" stroke="#757575" points="1468.5124,-655.4307 1478.8137,-652.9538 1469.2162,-648.4661 1468.5124,-655.4307"/>
</g>
<!-- devices/drivers/standard&#45;driver.js&#45;&gt;devices/drivers/device&#45;driver.js -->
<g id="edge25" class="edge">
<title>devices/drivers/standard&#45;driver.js&#45;&gt;devices/drivers/device&#45;driver.js</title>
<path fill="none" stroke="#757575" d="M1330.6912,-664.1904C1374.5605,-664.072 1424.6364,-663.9369 1468.7838,-663.8177"/>
<polygon fill="#757575" stroke="#757575" points="1468.9962,-667.3173 1478.9867,-663.7902 1468.9772,-660.3173 1468.9962,-667.3173"/>
</g>
<!-- services/alarm&#45;service.js -->
<g id="node29" class="node">
<title>services/alarm&#45;service.js</title>
<path fill="none" stroke="#c6c5fe" d="M1666.8333,-103C1666.8333,-103 1506.1667,-103 1506.1667,-103 1502.3333,-103 1498.5,-99.1667 1498.5,-95.3333 1498.5,-95.3333 1498.5,-87.6667 1498.5,-87.6667 1498.5,-83.8333 1502.3333,-80 1506.1667,-80 1506.1667,-80 1666.8333,-80 1666.8333,-80 1670.6667,-80 1674.5,-83.8333 1674.5,-87.6667 1674.5,-87.6667 1674.5,-95.3333 1674.5,-95.3333 1674.5,-99.1667 1670.6667,-103 1666.8333,-103"/>
<text text-anchor="middle" x="1586.5" y="-87.8" font-family="Arial" font-size="14.00" fill="#c6c5fe">services/alarm&#45;service.js</text>
</g>
<!-- services/services&#45;manager.js&#45;&gt;services/alarm&#45;service.js -->
<g id="edge51" class="edge">
<title>services/services&#45;manager.js&#45;&gt;services/alarm&#45;service.js</title>
<path fill="none" stroke="#757575" d="M1222.6757,-284.6961C1242.6189,-250.7149 1305.523,-152.4769 1388,-111.5 1418.5003,-96.3466 1454.855,-89.8833 1488.0672,-87.67"/>
<polygon fill="#757575" stroke="#757575" points="1488.4687,-91.1534 1498.2635,-87.1147 1488.088,-84.1638 1488.4687,-91.1534"/>
</g>
<!-- services/service.js -->
<g id="node30" class="node">
<title>services/service.js</title>
<path fill="none" stroke="#c6c5fe" d="M2078.3333,-308C2078.3333,-308 1958.6667,-308 1958.6667,-308 1954.8333,-308 1951,-304.1667 1951,-300.3333 1951,-300.3333 1951,-292.6667 1951,-292.6667 1951,-288.8333 1954.8333,-285 1958.6667,-285 1958.6667,-285 2078.3333,-285 2078.3333,-285 2082.1667,-285 2086,-288.8333 2086,-292.6667 2086,-292.6667 2086,-300.3333 2086,-300.3333 2086,-304.1667 2082.1667,-308 2078.3333,-308"/>
<text text-anchor="middle" x="2018.5" y="-292.8" font-family="Arial" font-size="14.00" fill="#c6c5fe">services/service.js</text>
</g>
<!-- services/services&#45;manager.js&#45;&gt;services/service.js -->
<g id="edge62" class="edge">
<title>services/services&#45;manager.js&#45;&gt;services/service.js</title>
<path fill="none" stroke="#757575" d="M1220.404,-284.8634C1235.9935,-245.578 1292.7949,-117.6842 1388,-70.5 1467.0468,-31.3239 1703.2205,-37.4051 1785,-70.5 1890.6552,-113.2571 1974.9742,-229.2833 2005.83,-276.3032"/>
<polygon fill="#757575" stroke="#757575" points="2002.9151,-278.2412 2011.2788,-284.745 2008.7964,-274.4451 2002.9151,-278.2412"/>
</g>
<!-- services/bill&#45;acceptor&#45;service.js -->
<g id="node31" class="node">
<title>services/bill&#45;acceptor&#45;service.js</title>
<path fill="none" stroke="#c6c5fe" d="M1687.8333,-23C1687.8333,-23 1485.1667,-23 1485.1667,-23 1481.3333,-23 1477.5,-19.1667 1477.5,-15.3333 1477.5,-15.3333 1477.5,-7.6667 1477.5,-7.6667 1477.5,-3.8333 1481.3333,0 1485.1667,0 1485.1667,0 1687.8333,0 1687.8333,0 1691.6667,0 1695.5,-3.8333 1695.5,-7.6667 1695.5,-7.6667 1695.5,-15.3333 1695.5,-15.3333 1695.5,-19.1667 1691.6667,-23 1687.8333,-23"/>
<text text-anchor="middle" x="1586.5" y="-7.8" font-family="Arial" font-size="14.00" fill="#c6c5fe">services/bill&#45;acceptor&#45;service.js</text>
</g>
<!-- services/services&#45;manager.js&#45;&gt;services/bill&#45;acceptor&#45;service.js -->
<g id="edge52" class="edge">
<title>services/services&#45;manager.js&#45;&gt;services/bill&#45;acceptor&#45;service.js</title>
<path fill="none" stroke="#757575" d="M1219.7404,-284.9021C1233.8774,-243.1352 1288.3703,-99.6038 1388,-37.5 1411.5108,-22.8446 1439.6254,-14.795 1467.1974,-10.6584"/>
<polygon fill="#757575" stroke="#757575" points="1467.8727,-14.0993 1477.3214,-9.3064 1466.946,-7.1609 1467.8727,-14.0993"/>
</g>
<!-- services/button&#45;service.js -->
<g id="node32" class="node">
<title>services/button&#45;service.js</title>
<path fill="none" stroke="#c6c5fe" d="M1668.8333,-554C1668.8333,-554 1504.1667,-554 1504.1667,-554 1500.3333,-554 1496.5,-550.1667 1496.5,-546.3333 1496.5,-546.3333 1496.5,-538.6667 1496.5,-538.6667 1496.5,-534.8333 1500.3333,-531 1504.1667,-531 1504.1667,-531 1668.8333,-531 1668.8333,-531 1672.6667,-531 1676.5,-534.8333 1676.5,-538.6667 1676.5,-538.6667 1676.5,-546.3333 1676.5,-546.3333 1676.5,-550.1667 1672.6667,-554 1668.8333,-554"/>
<text text-anchor="middle" x="1586.5" y="-538.8" font-family="Arial" font-size="14.00" fill="#c6c5fe">services/button&#45;service.js</text>
</g>
<!-- services/services&#45;manager.js&#45;&gt;services/button&#45;service.js -->
<g id="edge53" class="edge">
<title>services/services&#45;manager.js&#45;&gt;services/button&#45;service.js</title>
<path fill="none" stroke="#757575" d="M1220.8451,-308.2497C1237.432,-346.791 1296.045,-469.8517 1388,-521.5 1417.4354,-538.033 1453.2144,-545.0238 1486.2459,-547.3408"/>
<polygon fill="#757575" stroke="#757575" points="1486.217,-550.8447 1496.3987,-547.9152 1486.6124,-543.8558 1486.217,-550.8447"/>
</g>
<!-- services/camera&#45;service.js -->
<g id="node33" class="node">
<title>services/camera&#45;service.js</title>
<path fill="none" stroke="#c6c5fe" d="M1672.8333,-513C1672.8333,-513 1500.1667,-513 1500.1667,-513 1496.3333,-513 1492.5,-509.1667 1492.5,-505.3333 1492.5,-505.3333 1492.5,-497.6667 1492.5,-497.6667 1492.5,-493.8333 1496.3333,-490 1500.1667,-490 1500.1667,-490 1672.8333,-490 1672.8333,-490 1676.6667,-490 1680.5,-493.8333 1680.5,-497.6667 1680.5,-497.6667 1680.5,-505.3333 1680.5,-505.3333 1680.5,-509.1667 1676.6667,-513 1672.8333,-513"/>
<text text-anchor="middle" x="1586.5" y="-497.8" font-family="Arial" font-size="14.00" fill="#c6c5fe">services/camera&#45;service.js</text>
</g>
<!-- services/services&#45;manager.js&#45;&gt;services/camera&#45;service.js -->
<g id="edge54" class="edge">
<title>services/services&#45;manager.js&#45;&gt;services/camera&#45;service.js</title>
<path fill="none" stroke="#757575" d="M1222.7033,-308.221C1242.7215,-341.967 1305.8085,-439.548 1388,-480.5 1416.6879,-494.7938 1450.5568,-501.5003 1482.1184,-504.2362"/>
<polygon fill="#757575" stroke="#757575" points="1482.0436,-507.7402 1492.2751,-504.9895 1482.5614,-500.7594 1482.0436,-507.7402"/>
</g>
<!-- services/contact&#45;sensor&#45;service.js -->
<g id="node34" class="node">
<title>services/contact&#45;sensor&#45;service.js</title>
<path fill="none" stroke="#c6c5fe" d="M1696.8333,-472C1696.8333,-472 1476.1667,-472 1476.1667,-472 1472.3333,-472 1468.5,-468.1667 1468.5,-464.3333 1468.5,-464.3333 1468.5,-456.6667 1468.5,-456.6667 1468.5,-452.8333 1472.3333,-449 1476.1667,-449 1476.1667,-449 1696.8333,-449 1696.8333,-449 1700.6667,-449 1704.5,-452.8333 1704.5,-456.6667 1704.5,-456.6667 1704.5,-464.3333 1704.5,-464.3333 1704.5,-468.1667 1700.6667,-472 1696.8333,-472"/>
<text text-anchor="middle" x="1586.5" y="-456.8" font-family="Arial" font-size="14.00" fill="#c6c5fe">services/contact&#45;sensor&#45;service.js</text>
</g>
<!-- services/services&#45;manager.js&#45;&gt;services/contact&#45;sensor&#45;service.js -->
<g id="edge55" class="edge">
<title>services/services&#45;manager.js&#45;&gt;services/contact&#45;sensor&#45;service.js</title>
<path fill="none" stroke="#757575" d="M1225.7257,-308.4072C1249.7755,-336.8857 1315.3756,-408.8379 1388,-439.5 1409.9565,-448.77 1434.442,-454.5749 1458.5131,-458.1074"/>
<polygon fill="#757575" stroke="#757575" points="1458.0539,-461.5771 1468.4312,-459.4412 1458.987,-454.6395 1458.0539,-461.5771"/>
</g>
<!-- services/dimmer&#45;service.js -->
<g id="node35" class="node">
<title>services/dimmer&#45;service.js</title>
<path fill="none" stroke="#c6c5fe" d="M1672.8333,-431C1672.8333,-431 1500.1667,-431 1500.1667,-431 1496.3333,-431 1492.5,-427.1667 1492.5,-423.3333 1492.5,-423.3333 1492.5,-415.6667 1492.5,-415.6667 1492.5,-411.8333 1496.3333,-408 1500.1667,-408 1500.1667,-408 1672.8333,-408 1672.8333,-408 1676.6667,-408 1680.5,-411.8333 1680.5,-415.6667 1680.5,-415.6667 1680.5,-423.3333 1680.5,-423.3333 1680.5,-427.1667 1676.6667,-431 1672.8333,-431"/>
<text text-anchor="middle" x="1586.5" y="-415.8" font-family="Arial" font-size="14.00" fill="#c6c5fe">services/dimmer&#45;service.js</text>
</g>
<!-- services/services&#45;manager.js&#45;&gt;services/dimmer&#45;service.js -->
<g id="edge56" class="edge">
<title>services/services&#45;manager.js&#45;&gt;services/dimmer&#45;service.js</title>
<path fill="none" stroke="#757575" d="M1230.5687,-308.1583C1258.9388,-330.1413 1324.4047,-377.4014 1388,-398.5 1417.6985,-408.3529 1451.1411,-413.8679 1481.9921,-416.8792"/>
<polygon fill="#757575" stroke="#757575" points="1482.0735,-420.4005 1492.3461,-417.8071 1482.6984,-413.4284 1482.0735,-420.4005"/>
</g>
<!-- services/event&#45;mock&#45;service.js -->
<g id="node36" class="node">
<title>services/event&#45;mock&#45;service.js</title>
<path fill="none" stroke="#c6c5fe" d="M1686.3333,-390C1686.3333,-390 1486.6667,-390 1486.6667,-390 1482.8333,-390 1479,-386.1667 1479,-382.3333 1479,-382.3333 1479,-374.6667 1479,-374.6667 1479,-370.8333 1482.8333,-367 1486.6667,-367 1486.6667,-367 1686.3333,-367 1686.3333,-367 1690.1667,-367 1694,-370.8333 1694,-374.6667 1694,-374.6667 1694,-382.3333 1694,-382.3333 1694,-386.1667 1690.1667,-390 1686.3333,-390"/>
<text text-anchor="middle" x="1586.5" y="-374.8" font-family="Arial" font-size="14.00" fill="#c6c5fe">services/event&#45;mock&#45;service.js</text>
</g>
<!-- services/services&#45;manager.js&#45;&gt;services/event&#45;mock&#45;service.js -->
<g id="edge57" class="edge">
<title>services/services&#45;manager.js&#45;&gt;services/event&#45;mock&#45;service.js</title>
<path fill="none" stroke="#757575" d="M1242.5278,-308.121C1275.8253,-322.1867 1335.0097,-345.4773 1388,-357.5 1413.8464,-363.3641 1441.9659,-367.5987 1468.6935,-370.6541"/>
<polygon fill="#757575" stroke="#757575" points="1468.5395,-374.1581 1478.8613,-371.7682 1469.3021,-367.1997 1468.5395,-374.1581"/>
</g>
<!-- services/game&#45;machine&#45;service.js -->
<g id="node37" class="node">
<title>services/game&#45;machine&#45;service.js</title>
<path fill="none" stroke="#c6c5fe" d="M1696.8333,-349C1696.8333,-349 1476.1667,-349 1476.1667,-349 1472.3333,-349 1468.5,-345.1667 1468.5,-341.3333 1468.5,-341.3333 1468.5,-333.6667 1468.5,-333.6667 1468.5,-329.8333 1472.3333,-326 1476.1667,-326 1476.1667,-326 1696.8333,-326 1696.8333,-326 1700.6667,-326 1704.5,-329.8333 1704.5,-333.6667 1704.5,-333.6667 1704.5,-341.3333 1704.5,-341.3333 1704.5,-345.1667 1700.6667,-349 1696.8333,-349"/>
<text text-anchor="middle" x="1586.5" y="-333.8" font-family="Arial" font-size="14.00" fill="#c6c5fe">services/game&#45;machine&#45;service.js</text>
</g>
<!-- services/services&#45;manager.js&#45;&gt;services/game&#45;machine&#45;service.js -->
<g id="edge58" class="edge">
<title>services/services&#45;manager.js&#45;&gt;services/game&#45;machine&#45;service.js</title>
<path fill="none" stroke="#757575" d="M1313.7617,-308.0455C1338.0145,-310.8607 1363.9477,-313.8294 1388,-316.5 1413.0851,-319.2853 1439.9635,-322.1855 1465.5843,-324.9098"/>
<polygon fill="#757575" stroke="#757575" points="1465.4001,-328.4098 1475.7137,-325.9847 1466.1389,-321.4489 1465.4001,-328.4098"/>
</g>
<!-- services/gateway&#45;service.js -->
<g id="node38" class="node">
<title>services/gateway&#45;service.js</title>
<path fill="none" stroke="#c6c5fe" d="M1675.8333,-308C1675.8333,-308 1497.1667,-308 1497.1667,-308 1493.3333,-308 1489.5,-304.1667 1489.5,-300.3333 1489.5,-300.3333 1489.5,-292.6667 1489.5,-292.6667 1489.5,-288.8333 1493.3333,-285 1497.1667,-285 1497.1667,-285 1675.8333,-285 1675.8333,-285 1679.6667,-285 1683.5,-288.8333 1683.5,-292.6667 1683.5,-292.6667 1683.5,-300.3333 1683.5,-300.3333 1683.5,-304.1667 1679.6667,-308 1675.8333,-308"/>
<text text-anchor="middle" x="1586.5" y="-292.8" font-family="Arial" font-size="14.00" fill="#c6c5fe">services/gateway&#45;service.js</text>
</g>
<!-- services/services&#45;manager.js&#45;&gt;services/gateway&#45;service.js -->
<g id="edge59" class="edge">
<title>services/services&#45;manager.js&#45;&gt;services/gateway&#45;service.js</title>
<path fill="none" stroke="#757575" d="M1318.2215,-296.5C1368.3221,-296.5 1428.6385,-296.5 1479.3799,-296.5"/>
<polygon fill="#757575" stroke="#757575" points="1479.3947,-300.0001 1489.3947,-296.5 1479.3947,-293.0001 1479.3947,-300.0001"/>
</g>
<!-- services/light&#45;service.js -->
<g id="node39" class="node">
<title>services/light&#45;service.js</title>
<path fill="none" stroke="#c6c5fe" d="M1661.8333,-267C1661.8333,-267 1511.1667,-267 1511.1667,-267 1507.3333,-267 1503.5,-263.1667 1503.5,-259.3333 1503.5,-259.3333 1503.5,-251.6667 1503.5,-251.6667 1503.5,-247.8333 1507.3333,-244 1511.1667,-244 1511.1667,-244 1661.8333,-244 1661.8333,-244 1665.6667,-244 1669.5,-247.8333 1669.5,-251.6667 1669.5,-251.6667 1669.5,-259.3333 1669.5,-259.3333 1669.5,-263.1667 1665.6667,-267 1661.8333,-267"/>
<text text-anchor="middle" x="1586.5" y="-251.8" font-family="Arial" font-size="14.00" fill="#c6c5fe">services/light&#45;service.js</text>
</g>
<!-- services/services&#45;manager.js&#45;&gt;services/light&#45;service.js -->
<g id="edge60" class="edge">
<title>services/services&#45;manager.js&#45;&gt;services/light&#45;service.js</title>
<path fill="none" stroke="#757575" d="M1307.4535,-284.971C1333.4681,-281.7901 1361.8394,-278.4146 1388,-275.5 1422.3157,-271.6768 1460.0058,-267.7985 1493.2387,-264.4876"/>
<polygon fill="#757575" stroke="#757575" points="1493.7952,-267.9497 1503.4006,-263.479 1493.1037,-260.9839 1493.7952,-267.9497"/>
</g>
<!-- services/lock&#45;service.js -->
<g id="node40" class="node">
<title>services/lock&#45;service.js</title>
<path fill="none" stroke="#c6c5fe" d="M1661.8333,-226C1661.8333,-226 1511.1667,-226 1511.1667,-226 1507.3333,-226 1503.5,-222.1667 1503.5,-218.3333 1503.5,-218.3333 1503.5,-210.6667 1503.5,-210.6667 1503.5,-206.8333 1507.3333,-203 1511.1667,-203 1511.1667,-203 1661.8333,-203 1661.8333,-203 1665.6667,-203 1669.5,-206.8333 1669.5,-210.6667 1669.5,-210.6667 1669.5,-218.3333 1669.5,-218.3333 1669.5,-222.1667 1665.6667,-226 1661.8333,-226"/>
<text text-anchor="middle" x="1586.5" y="-210.8" font-family="Arial" font-size="14.00" fill="#c6c5fe">services/lock&#45;service.js</text>
</g>
<!-- services/services&#45;manager.js&#45;&gt;services/lock&#45;service.js -->
<g id="edge61" class="edge">
<title>services/services&#45;manager.js&#45;&gt;services/lock&#45;service.js</title>
<path fill="none" stroke="#757575" d="M1241.9169,-284.8829C1275.0714,-270.5569 1334.6034,-246.6196 1388,-234.5 1421.8247,-226.8227 1459.5606,-222.0914 1492.9721,-219.176"/>
<polygon fill="#757575" stroke="#757575" points="1493.5167,-222.6429 1503.1932,-218.3283 1492.9381,-215.6669 1493.5167,-222.6429"/>
</g>
<!-- services/siren&#45;service.js -->
<g id="node41" class="node">
<title>services/siren&#45;service.js</title>
<path fill="none" stroke="#c6c5fe" d="M1664.3333,-185C1664.3333,-185 1508.6667,-185 1508.6667,-185 1504.8333,-185 1501,-181.1667 1501,-177.3333 1501,-177.3333 1501,-169.6667 1501,-169.6667 1501,-165.8333 1504.8333,-162 1508.6667,-162 1508.6667,-162 1664.3333,-162 1664.3333,-162 1668.1667,-162 1672,-165.8333 1672,-169.6667 1672,-169.6667 1672,-177.3333 1672,-177.3333 1672,-181.1667 1668.1667,-185 1664.3333,-185"/>
<text text-anchor="middle" x="1586.5" y="-169.8" font-family="Arial" font-size="14.00" fill="#c6c5fe">services/siren&#45;service.js</text>
</g>
<!-- services/services&#45;manager.js&#45;&gt;services/siren&#45;service.js -->
<g id="edge63" class="edge">
<title>services/services&#45;manager.js&#45;&gt;services/siren&#45;service.js</title>
<path fill="none" stroke="#757575" d="M1230.5378,-284.6956C1258.855,-262.4428 1324.2346,-214.6305 1388,-193.5 1420.4774,-182.7377 1457.446,-177.3031 1490.6041,-174.6872"/>
<polygon fill="#757575" stroke="#757575" points="1491.0373,-178.1653 1500.7631,-173.963 1490.5395,-171.183 1491.0373,-178.1653"/>
</g>
<!-- services/thermostat&#45;service.js -->
<g id="node42" class="node">
<title>services/thermostat&#45;service.js</title>
<path fill="none" stroke="#c6c5fe" d="M1682.8333,-144C1682.8333,-144 1490.1667,-144 1490.1667,-144 1486.3333,-144 1482.5,-140.1667 1482.5,-136.3333 1482.5,-136.3333 1482.5,-128.6667 1482.5,-128.6667 1482.5,-124.8333 1486.3333,-121 1490.1667,-121 1490.1667,-121 1682.8333,-121 1682.8333,-121 1686.6667,-121 1690.5,-124.8333 1690.5,-128.6667 1690.5,-128.6667 1690.5,-136.3333 1690.5,-136.3333 1690.5,-140.1667 1686.6667,-144 1682.8333,-144"/>
<text text-anchor="middle" x="1586.5" y="-128.8" font-family="Arial" font-size="14.00" fill="#c6c5fe">services/thermostat&#45;service.js</text>
</g>
<!-- services/services&#45;manager.js&#45;&gt;services/thermostat&#45;service.js -->
<g id="edge64" class="edge">
<title>services/services&#45;manager.js&#45;&gt;services/thermostat&#45;service.js</title>
<path fill="none" stroke="#757575" d="M1225.3445,-284.9074C1249.0347,-256.4719 1314.7848,-183.3444 1388,-152.5 1414.1973,-141.4635 1443.9994,-135.4479 1472.4024,-132.3682"/>
<polygon fill="#757575" stroke="#757575" points="1472.768,-135.8493 1482.3823,-131.3979 1472.0905,-128.8821 1472.768,-135.8493"/>
</g>
<!-- devices/drivers/generic/service&#45;adapters/dimmer&#45;adapter.js&#45;&gt;devices/drivers/generic/service&#45;adapters/service&#45;adapter.js -->
<g id="edge23" class="edge">
<title>devices/drivers/generic/service&#45;adapters/dimmer&#45;adapter.js&#45;&gt;devices/drivers/generic/service&#45;adapters/service&#45;adapter.js</title>
<path fill="none" stroke="#757575" d="M1785.1144,-613.3049C1793.6366,-612.9103 1802.1951,-612.5141 1810.7365,-612.1187"/>
<polygon fill="#757575" stroke="#757575" points="1810.9248,-615.6138 1820.7522,-611.655 1810.601,-608.6213 1810.9248,-615.6138"/>
</g>
<!-- http&#45;server.js -->
<g id="node23" class="node">
<title>http&#45;server.js</title>
<path fill="none" stroke="#cfffac" d="M225.8333,-557C225.8333,-557 142.1667,-557 142.1667,-557 138.3333,-557 134.5,-553.1667 134.5,-549.3333 134.5,-549.3333 134.5,-541.6667 134.5,-541.6667 134.5,-537.8333 138.3333,-534 142.1667,-534 142.1667,-534 225.8333,-534 225.8333,-534 229.6667,-534 233.5,-537.8333 233.5,-541.6667 233.5,-541.6667 233.5,-549.3333 233.5,-549.3333 233.5,-553.1667 229.6667,-557 225.8333,-557"/>
<text text-anchor="middle" x="184" y="-541.8" font-family="Arial" font-size="14.00" fill="#cfffac">http&#45;server.js</text>
</g>
<!-- index.js -->
<g id="node24" class="node">
<title>index.js</title>
<path fill="none" stroke="#c6c5fe" d="M58.3333,-639C58.3333,-639 7.6667,-639 7.6667,-639 3.8333,-639 0,-635.1667 0,-631.3333 0,-631.3333 0,-623.6667 0,-623.6667 0,-619.8333 3.8333,-616 7.6667,-616 7.6667,-616 58.3333,-616 58.3333,-616 62.1667,-616 66,-619.8333 66,-623.6667 66,-623.6667 66,-631.3333 66,-631.3333 66,-635.1667 62.1667,-639 58.3333,-639"/>
<text text-anchor="middle" x="33" y="-623.8" font-family="Arial" font-size="14.00" fill="#c6c5fe">index.js</text>
</g>
<!-- index.js&#45;&gt;accounts/accounts&#45;manager.js -->
<g id="edge26" class="edge">
<title>index.js&#45;&gt;accounts/accounts&#45;manager.js</title>
<path fill="none" stroke="#757575" d="M33.4703,-639.2228C35.4829,-672.0904 46.0958,-765.4611 102,-807.5 355.515,-998.1386 783.6127,-818.4947 904.0894,-761.5098"/>
<polygon fill="#757575" stroke="#757575" points="905.6778,-764.6299 913.191,-757.1598 902.6592,-758.3142 905.6778,-764.6299"/>
</g>
<!-- index.js&#45;&gt;automator/automator.js -->
<g id="edge27" class="edge">
<title>index.js&#45;&gt;automator/automator.js</title>
<path fill="none" stroke="#757575" d="M66.1376,-627.5C73.896,-627.5 82.5368,-627.5 91.5157,-627.5"/>
<polygon fill="#757575" stroke="#757575" points="91.7677,-631.0001 101.7677,-627.5 91.7676,-624.0001 91.7677,-631.0001"/>
</g>
<!-- index.js&#45;&gt;automator/notifications.js -->
<g id="edge28" class="edge">
<title>index.js&#45;&gt;automator/notifications.js</title>
<path fill="none" stroke="#757575" d="M47.651,-639.0849C60.9994,-648.9621 81.6762,-662.6206 102,-669.5 176.7806,-694.8127 266.0982,-703.0339 332.7875,-705.2197"/>
<polygon fill="#757575" stroke="#757575" points="332.7774,-708.7207 342.874,-705.5101 332.9789,-701.7236 332.7774,-708.7207"/>
</g>
<!-- index.js&#45;&gt;devices/devices&#45;manager.js -->
<g id="edge31" class="edge">
<title>index.js&#45;&gt;devices/devices&#45;manager.js</title>
<path fill="none" stroke="#757575" d="M35.5294,-615.8844C43.8974,-578.6404 71.8713,-463.4189 102,-442.5 173.154,-393.0965 517.61,-463.8747 560,-485.5 614.7902,-513.4513 660.2539,-572.431 681.528,-603.4554"/>
<polygon fill="#757575" stroke="#757575" points="678.6283,-605.4155 687.1067,-611.769 684.4409,-601.515 678.6283,-605.4155"/>
</g>
<!-- index.js&#45;&gt;scenes/scenes&#45;manager.js -->
<g id="edge33" class="edge">
<title>index.js&#45;&gt;scenes/scenes&#45;manager.js</title>
<path fill="none" stroke="#757575" d="M64.8927,-639.0235C76.4319,-642.7063 89.6599,-646.3754 102,-648.5 175.8119,-661.2084 260.2268,-664.8387 325.0681,-665.3538"/>
<polygon fill="#757575" stroke="#757575" points="325.2827,-668.855 335.302,-665.4107 325.3216,-661.8551 325.2827,-668.855"/>
</g>
<!-- index.js&#45;&gt;client&#45;api.js -->
<g id="edge29" class="edge">
<title>index.js&#45;&gt;client&#45;api.js</title>
<path fill="none" stroke="#757575" d="M38.7001,-639.2387C48.7696,-658.7627 71.5525,-697.8931 102,-719.5 110.2211,-725.3341 119.8078,-729.8992 129.4683,-733.4589"/>
<polygon fill="#757575" stroke="#757575" points="128.5116,-736.8297 139.1056,-736.6933 130.7388,-730.1934 128.5116,-736.8297"/>
</g>
<!-- index.js&#45;&gt;device&#45;relay.js -->
<g id="edge30" class="edge">
<title>index.js&#45;&gt;device&#45;relay.js</title>
<path fill="none" stroke="#757575" d="M66.2813,-617.6243C77.5958,-614.3279 90.3287,-610.6851 102,-607.5 110.4464,-605.1949 119.4027,-602.8254 128.1741,-600.5462"/>
<polygon fill="#757575" stroke="#757575" points="129.1539,-603.9081 137.9616,-598.0195 127.4041,-597.1303 129.1539,-603.9081"/>
</g>
<!-- index.js&#45;&gt;http&#45;server.js -->
<g id="edge32" class="edge">
<title>index.js&#45;&gt;http&#45;server.js</title>
<path fill="none" stroke="#757575" d="M42.9314,-615.5367C55.3045,-601.4265 77.7873,-578.2789 102,-565.5 109.0942,-561.7558 116.9039,-558.6984 124.7988,-556.2053"/>
<polygon fill="#757575" stroke="#757575" points="125.7856,-559.5634 134.4287,-553.4358 123.8508,-552.8361 125.7856,-559.5634"/>
</g>
<!-- stream&#45;relay.js -->
<g id="node25" class="node">
<title>stream&#45;relay.js</title>
<path fill="none" stroke="#cfffac" d="M231.3333,-516C231.3333,-516 136.6667,-516 136.6667,-516 132.8333,-516 129,-512.1667 129,-508.3333 129,-508.3333 129,-500.6667 129,-500.6667 129,-496.8333 132.8333,-493 136.6667,-493 136.6667,-493 231.3333,-493 231.3333,-493 235.1667,-493 239,-496.8333 239,-500.6667 239,-500.6667 239,-508.3333 239,-508.3333 239,-512.1667 235.1667,-516 231.3333,-516"/>
<text text-anchor="middle" x="184" y="-500.8" font-family="Arial" font-size="14.00" fill="#cfffac">stream&#45;relay.js</text>
</g>
<!-- index.js&#45;&gt;stream&#45;relay.js -->
<g id="edge34" class="edge">
<title>index.js&#45;&gt;stream&#45;relay.js</title>
<path fill="none" stroke="#757575" d="M37.4297,-615.8444C46.2502,-594.2727 68.1253,-548.1703 102,-524.5 107.2025,-520.8647 112.9918,-517.887 119.0205,-515.4484"/>
<polygon fill="#757575" stroke="#757575" points="120.3822,-518.6793 128.6412,-512.0432 118.0465,-512.0805 120.3822,-518.6793"/>
</g>
<!-- utilities&#45;server.js -->
<g id="node26" class="node">
<title>utilities&#45;server.js</title>
<path fill="none" stroke="#cfffac" d="M235.8333,-475C235.8333,-475 132.1667,-475 132.1667,-475 128.3333,-475 124.5,-471.1667 124.5,-467.3333 124.5,-467.3333 124.5,-459.6667 124.5,-459.6667 124.5,-455.8333 128.3333,-452 132.1667,-452 132.1667,-452 235.8333,-452 235.8333,-452 239.6667,-452 243.5,-455.8333 243.5,-459.6667 243.5,-459.6667 243.5,-467.3333 243.5,-467.3333 243.5,-471.1667 239.6667,-475 235.8333,-475"/>
<text text-anchor="middle" x="184" y="-459.8" font-family="Arial" font-size="14.00" fill="#cfffac">utilities&#45;server.js</text>
</g>
<!-- index.js&#45;&gt;utilities&#45;server.js -->
<g id="edge35" class="edge">
<title>index.js&#45;&gt;utilities&#45;server.js</title>
<path fill="none" stroke="#757575" d="M35.1104,-615.6908C40.6934,-588.0412 58.5135,-518.7805 102,-483.5 105.8512,-480.3755 110.1173,-477.7276 114.6213,-475.4849"/>
<polygon fill="#757575" stroke="#757575" points="116.3159,-478.5674 124.1436,-471.4275 113.5719,-472.1276 116.3159,-478.5674"/>
</g>
<!-- website.js -->
<g id="node27" class="node">
<title>website.js</title>
<path fill="none" stroke="#c6c5fe" d="M216.3333,-798C216.3333,-798 151.6667,-798 151.6667,-798 147.8333,-798 144,-794.1667 144,-790.3333 144,-790.3333 144,-782.6667 144,-782.6667 144,-778.8333 147.8333,-775 151.6667,-775 151.6667,-775 216.3333,-775 216.3333,-775 220.1667,-775 224,-778.8333 224,-782.6667 224,-782.6667 224,-790.3333 224,-790.3333 224,-794.1667 220.1667,-798 216.3333,-798"/>
<text text-anchor="middle" x="184" y="-782.8" font-family="Arial" font-size="14.00" fill="#c6c5fe">website.js</text>
</g>
<!-- index.js&#45;&gt;website.js -->
<g id="edge36" class="edge">
<title>index.js&#45;&gt;website.js</title>
<path fill="none" stroke="#757575" d="M35.3301,-639.3072C41.2921,-666.2768 59.7102,-732.6757 102,-766.5 111.1163,-773.7914 122.4995,-778.4816 133.856,-781.4833"/>
<polygon fill="#757575" stroke="#757575" points="133.2476,-784.9338 143.7714,-783.7096 134.7811,-778.1038 133.2476,-784.9338"/>
</g>
<!-- website.js&#45;&gt;../webpack.config.js -->
<g id="edge67" class="edge">
<title>website.js&#45;&gt;../webpack.config.js</title>
<path fill="none" stroke="#757575" d="M224.2345,-786.5C257.9532,-786.5 307.1723,-786.5 349.1308,-786.5"/>
<polygon fill="#757575" stroke="#757575" points="349.3488,-790.0001 359.3488,-786.5 349.3487,-783.0001 349.3488,-790.0001"/>
</g>
<!-- website.js&#45;&gt;accounts/accounts&#45;manager.js -->
<g id="edge68" class="edge">
<title>website.js&#45;&gt;accounts/accounts&#45;manager.js</title>
<path fill="none" stroke="#757575" d="M224.1784,-795.4623C246.8901,-800.0709 275.8835,-805.1942 302,-807.5 416.2223,-817.5846 445.7149,-816.847 560,-807.5 671.1407,-798.4102 798.908,-774.4674 873.3824,-759.1349"/>
<polygon fill="#757575" stroke="#757575" points="874.4488,-762.4883 883.53,-757.031 873.0277,-755.6341 874.4488,-762.4883"/>
</g>
<!-- services/alarm&#45;service.js&#45;&gt;services/service.js -->
<g id="edge39" class="edge">
<title>services/alarm&#45;service.js&#45;&gt;services/service.js</title>
<path fill="none" stroke="#757575" d="M1674.5572,-89.7581C1709.966,-91.7414 1750.4947,-97.5088 1785,-111.5 1878.9677,-149.6018 1965.957,-237.8481 2001.5437,-277.0866"/>
<polygon fill="#757575" stroke="#757575" points="1999.0637,-279.5638 2008.3413,-284.6802 2004.2793,-274.8949 1999.0637,-279.5638"/>
</g>
<!-- services/service.js&#45;&gt;devices/device&#45;settings.js -->
<g id="edge50" class="edge">
<title>services/service.js&#45;&gt;devices/device&#45;settings.js</title>
<path fill="none" stroke="#757575" d="M2036.8763,-308.0524C2091.1868,-342.1952 2251.1771,-442.7746 2315.6307,-483.294"/>
<polygon fill="#757575" stroke="#757575" points="2314.0942,-486.4622 2324.423,-488.8214 2317.8198,-480.536 2314.0942,-486.4622"/>
</g>
<!-- services/bill&#45;acceptor&#45;service.js&#45;&gt;services/service.js -->
<g id="edge40" class="edge">
<title>services/bill&#45;acceptor&#45;service.js&#45;&gt;services/service.js</title>
<path fill="none" stroke="#757575" d="M1695.5183,-11.9868C1725.8246,-15.7166 1757.8462,-23.236 1785,-37.5 1894.5138,-95.028 1977.9631,-225.7237 2007.1875,-276.1374"/>
<polygon fill="#757575" stroke="#757575" points="2004.1589,-277.892 2012.1547,-284.8432 2010.2389,-274.423 2004.1589,-277.892"/>
</g>
<!-- services/button&#45;service.js&#45;&gt;services/service.js -->
<g id="edge41" class="edge">
<title>services/button&#45;service.js&#45;&gt;services/service.js</title>
<path fill="none" stroke="#757575" d="M1676.7933,-545.3022C1711.9502,-543.285 1751.7051,-537.0175 1785,-521.5 1887.6353,-473.6655 1973.1369,-362.0967 2005.0677,-316.4778"/>
<polygon fill="#757575" stroke="#757575" points="2008.097,-318.2501 2010.8925,-308.0307 2002.3343,-314.2763 2008.097,-318.2501"/>
</g>
<!-- services/camera&#45;service.js&#45;&gt;services/service.js -->
<g id="edge42" class="edge">
<title>services/camera&#45;service.js&#45;&gt;services/service.js</title>
<path fill="none" stroke="#757575" d="M1680.5307,-502.2698C1714.4699,-499.8008 1752.4193,-493.7553 1785,-480.5 1878.7275,-442.3674 1965.8445,-354.724 2001.5042,-315.7695"/>
<polygon fill="#757575" stroke="#757575" points="2004.2083,-317.9974 2008.3164,-308.2314 1999.0148,-313.304 2004.2083,-317.9974"/>
</g>
<!-- services/contact&#45;sensor&#45;service.js&#45;&gt;services/service.js -->
<g id="edge43" class="edge">
<title>services/contact&#45;sensor&#45;service.js&#45;&gt;services/service.js</title>
<path fill="none" stroke="#757575" d="M1704.6092,-456.676C1731.5271,-453.4362 1759.6521,-448.1102 1785,-439.5 1870.1558,-410.5743 1956.9757,-346.301 1996.491,-314.7241"/>
<polygon fill="#757575" stroke="#757575" points="1999.047,-317.1585 2004.6237,-308.1501 1994.6465,-311.7146 1999.047,-317.1585"/>
</g>
<!-- services/dimmer&#45;service.js&#45;&gt;services/service.js -->
<g id="edge44" class="edge">
<title>services/dimmer&#45;service.js&#45;&gt;services/service.js</title>
<path fill="none" stroke="#757575" d="M1680.7263,-415.4606C1714.0693,-412.4802 1751.5821,-407.3407 1785,-398.5 1861.8961,-378.1572 1945.9642,-336.0717 1989.1948,-312.822"/>
<polygon fill="#757575" stroke="#757575" points="1990.9138,-315.8714 1998.0325,-308.0244 1987.5741,-309.7194 1990.9138,-315.8714"/>
</g>
<!-- services/event&#45;mock&#45;service.js&#45;&gt;services/service.js -->
<g id="edge45" class="edge">
<title>services/event&#45;mock&#45;service.js&#45;&gt;services/service.js</title>
<path fill="none" stroke="#757575" d="M1694.0599,-370.0942C1723.6598,-366.9743 1755.6814,-362.8492 1785,-357.5 1850.473,-345.5544 1924.5942,-324.9477 1971.424,-311.0272"/>
<polygon fill="#757575" stroke="#757575" points="1972.7016,-314.2983 1981.2775,-308.077 1970.6937,-307.5924 1972.7016,-314.2983"/>
</g>
<!-- services/game&#45;machine&#45;service.js&#45;&gt;services/service.js -->
<g id="edge46" class="edge">
<title>services/game&#45;machine&#45;service.js&#45;&gt;services/service.js</title>
<path fill="none" stroke="#757575" d="M1704.5459,-326.2966C1779.5984,-319.1735 1874.6685,-310.1507 1940.4239,-303.91"/>
<polygon fill="#757575" stroke="#757575" points="1941.0934,-307.3623 1950.718,-302.933 1940.432,-300.3936 1941.0934,-307.3623"/>
</g>
<!-- services/gateway&#45;service.js&#45;&gt;services/service.js -->
<g id="edge47" class="edge">
<title>services/gateway&#45;service.js&#45;&gt;services/service.js</title>
<path fill="none" stroke="#757575" d="M1683.7184,-296.5C1761.2658,-296.5 1868.4574,-296.5 1940.4667,-296.5"/>
<polygon fill="#757575" stroke="#757575" points="1940.828,-300.0001 1950.828,-296.5 1940.8279,-293.0001 1940.828,-300.0001"/>
</g>
<!-- services/light&#45;service.js&#45;&gt;services/service.js -->
<g id="edge48" class="edge">
<title>services/light&#45;service.js&#45;&gt;services/service.js</title>
<path fill="none" stroke="#757575" d="M1669.5382,-263.3809C1747.8812,-270.8163 1864.4169,-281.8764 1940.9213,-289.1372"/>
<polygon fill="#757575" stroke="#757575" points="1940.6908,-292.631 1950.9768,-290.0916 1941.3523,-285.6623 1940.6908,-292.631"/>
</g>
<!-- services/lock&#45;service.js&#45;&gt;services/service.js -->
<g id="edge49" class="edge">
<title>services/lock&#45;service.js&#45;&gt;services/service.js</title>
<path fill="none" stroke="#757575" d="M1669.9713,-219.9406C1705.5949,-223.0282 1747.5155,-227.6799 1785,-234.5 1850.9324,-246.4961 1925.5206,-267.6691 1972.2771,-281.8911"/>
<polygon fill="#757575" stroke="#757575" points="1971.5188,-285.3193 1982.1055,-284.903 1973.5699,-278.6265 1971.5188,-285.3193"/>
</g>
<!-- services/siren&#45;service.js&#45;&gt;services/service.js -->
<g id="edge65" class="edge">
<title>services/siren&#45;service.js&#45;&gt;services/service.js</title>
<path fill="none" stroke="#757575" d="M1672.0657,-176.2207C1707.4704,-178.8611 1748.6628,-183.9141 1785,-193.5 1862.2311,-213.8739 1946.4802,-256.6295 1989.5657,-280.1419"/>
<polygon fill="#757575" stroke="#757575" points="1987.9184,-283.2303 1998.366,-284.9903 1991.2962,-277.0992 1987.9184,-283.2303"/>
</g>
<!-- services/thermostat&#45;service.js&#45;&gt;services/service.js -->
<g id="edge66" class="edge">
<title>services/thermostat&#45;service.js&#45;&gt;services/service.js</title>
<path fill="none" stroke="#757575" d="M1690.636,-134.1394C1721.6198,-136.971 1755.2283,-142.4183 1785,-152.5 1870.5555,-181.472 1957.501,-246.551 1996.8197,-278.3364"/>
<polygon fill="#757575" stroke="#757575" points="1994.9457,-281.3252 2004.9023,-284.9468 1999.3774,-275.9066 1994.9457,-281.3252"/>
</g>
</g>
</svg>
